<svg width="31" height="32" viewBox="0 0 31 32" fill="none" xmlns="http://www.w3.org/2000/svg">
<path d="M21.88 22.6533C20.1426 22.6533 19.0487 23.2133 18.0835 23.72C17.247 24.16 16.5649 24.52 15.4452 24.52C14.287 24.52 13.6435 24.1866 12.807 23.72C11.8418 23.2133 10.7865 22.6533 9.01047 22.6533C7.23447 22.6533 6.17916 23.2133 5.21394 23.72C4.66055 24.0133 4.17151 24.2666 3.57951 24.4133C3.00038 24.5466 2.57568 25.0266 2.57568 25.6266V25.76C2.57568 26.56 3.29638 27.1333 4.04281 26.9733C4.99516 26.7733 5.71586 26.4 6.37221 26.0533C7.20873 25.6133 7.87794 25.2533 9.01047 25.2533C10.143 25.2533 10.8122 25.5866 11.6487 26.0533C12.6139 26.56 13.6692 27.12 15.4452 27.12C17.2212 27.12 18.2766 26.56 19.2418 26.0533C20.0783 25.6133 20.7604 25.2533 21.88 25.2533C23.0383 25.2533 23.6818 25.5866 24.5183 26.0533C25.1875 26.4 25.9082 26.7866 26.8734 26.9866C27.0473 27.0218 27.2265 27.017 27.3983 26.9725C27.5702 26.928 27.7306 26.845 27.868 26.7293C28.0055 26.6135 28.1168 26.4679 28.194 26.3027C28.2712 26.1376 28.3124 25.9568 28.3148 25.7733V25.6533C28.3148 25.04 27.8772 24.56 27.2981 24.4266C26.7061 24.2933 26.2299 24.04 25.6766 23.7333C24.7113 23.2133 23.6174 22.6533 21.88 22.6533ZM21.88 16.72C20.1426 16.72 19.0487 17.2933 18.0835 17.7866C17.247 18.2133 16.5649 18.5866 15.4452 18.5866C14.287 18.5866 13.6435 18.2533 12.807 17.7866C11.8418 17.28 10.7865 16.72 9.01047 16.72C7.23447 16.72 6.17916 17.2933 5.21394 17.7866C4.66055 18.0666 4.17151 18.3333 3.56664 18.48C3.00038 18.6133 2.57568 19.0933 2.57568 19.6933V19.8266C2.57576 20.0109 2.61548 20.1929 2.69196 20.3593C2.76844 20.5257 2.87976 20.6723 3.01782 20.7885C3.15587 20.9047 3.31719 20.9876 3.49005 21.0311C3.66291 21.0746 3.84295 21.0776 4.01707 21.04C4.98229 20.84 5.70299 20.4533 6.37221 20.12C7.20873 19.6533 7.85221 19.32 9.01047 19.32C10.1687 19.32 10.8122 19.6533 11.6487 20.12C12.6139 20.6266 13.6692 21.1866 15.4452 21.1866C17.2212 21.1866 18.2766 20.6133 19.2418 20.12C20.0783 19.6533 20.7218 19.32 21.88 19.32C23.0383 19.32 23.6818 19.6533 24.5183 20.12C25.1875 20.4666 25.9082 20.8533 26.8734 21.0533C27.0483 21.0887 27.2286 21.0835 27.4014 21.0383C27.5742 20.9931 27.7352 20.9089 27.8729 20.7917C28.0107 20.6745 28.1217 20.5272 28.1981 20.3604C28.2745 20.1935 28.3143 20.0113 28.3148 19.8266V19.7066C28.3148 19.0933 27.8772 18.6133 27.2981 18.48C26.7061 18.3466 26.2299 18.0933 25.6766 17.7866C24.7113 17.28 23.6174 16.72 21.88 16.72ZM25.6766 5.94664C24.7113 5.43997 23.6432 4.87997 21.88 4.87997C20.1169 4.87997 19.0487 5.43997 18.0835 5.94664C17.247 6.37331 16.5649 6.74664 15.4452 6.74664C14.287 6.74664 13.6435 6.41331 12.807 5.94664C11.8418 5.45331 10.7865 4.87997 9.01047 4.87997C7.23447 4.87997 6.17916 5.43997 5.21394 5.94664C4.66055 6.23997 4.17151 6.49331 3.57951 6.63997C3.00038 6.77331 2.57568 7.25331 2.57568 7.85331V7.94664C2.57568 8.74664 3.27064 9.33331 4.01707 9.17331C4.98229 8.97331 5.70299 8.58664 6.37221 8.25331C7.20873 7.81331 7.87794 7.45331 9.01047 7.45331C10.143 7.45331 10.8122 7.78664 11.6487 8.25331C12.6139 8.75997 13.6692 9.31997 15.4452 9.31997C17.2212 9.31997 18.2766 8.74664 19.2418 8.25331C20.0783 7.82664 20.7604 7.45331 21.88 7.45331C23.0383 7.45331 23.6818 7.78664 24.5183 8.25331C25.1875 8.59997 25.9082 8.98664 26.8734 9.18664C27.0483 9.222 27.2286 9.21688 27.4014 9.17164C27.5742 9.12641 27.7352 9.04218 27.8729 8.92499C28.0107 8.80779 28.1217 8.66051 28.1981 8.49369C28.2745 8.32686 28.3143 8.14462 28.3148 7.95997V7.83997C28.3148 7.22664 27.8772 6.74664 27.2981 6.61331C26.7061 6.47997 26.2299 6.23997 25.6766 5.94664ZM21.88 10.7866C20.1426 10.7866 19.0487 11.36 18.0835 11.8533C17.247 12.32 16.6035 12.6533 15.4452 12.6533C14.287 12.6533 13.6435 12.32 12.807 11.8533C11.8418 11.3466 10.7865 10.7866 9.01047 10.7866C7.23447 10.7866 6.17916 11.36 5.21394 11.8533C4.66055 12.16 4.18438 12.4133 3.59238 12.5466C3.01325 12.68 2.57568 13.16 2.57568 13.7733V13.8933C2.57576 14.0776 2.61548 14.2596 2.69196 14.4259C2.76844 14.5923 2.87976 14.739 3.01782 14.8552C3.15587 14.9714 3.31719 15.0543 3.49005 15.0978C3.66291 15.1413 3.84295 15.1443 4.01707 15.1066C4.98229 14.9066 5.70299 14.52 6.37221 14.1866C7.20873 13.76 7.89081 13.3866 9.01047 13.3866C10.1301 13.3866 10.8122 13.72 11.6487 14.1866C12.6139 14.6933 13.6692 15.2533 15.4452 15.2533C17.2212 15.2533 18.2766 14.68 19.2418 14.1866C20.0783 13.76 20.7604 13.3866 21.88 13.3866C23.0383 13.3866 23.6818 13.72 24.5183 14.1866C25.1875 14.5333 25.9082 14.92 26.8734 15.12C27.0473 15.1551 27.2265 15.1503 27.3983 15.1058C27.5702 15.0614 27.7306 14.9783 27.868 14.8626C28.0055 14.7469 28.1168 14.6013 28.194 14.4361C28.2712 14.2709 28.3124 14.0902 28.3148 13.9066V13.7866C28.3148 13.1733 27.8772 12.6933 27.2981 12.56C26.7061 12.4266 26.2299 12.1733 25.6766 11.8666C24.7113 11.3466 23.6174 10.7866 21.88 10.7866Z" fill="url(#paint0_linear_19_278)"/>
<defs>
<linearGradient id="paint0_linear_19_278" x1="15.4452" y1="4.87997" x2="15.4452" y2="27.12" gradientUnits="userSpaceOnUse">
<stop stop-color="#F2B90C"/>
<stop offset="1" stop-color="#F2A50C"/>
</linearGradient>
</defs>
</svg>
