<svg width="31" height="32" viewBox="0 0 31 32" fill="none" xmlns="http://www.w3.org/2000/svg">
<g clip-path="url(#clip0_19_237)">
<path d="M24.4522 9.3334H23.3969L21.209 3.0934C21.0279 2.57888 20.6989 2.13427 20.2662 1.81956C19.8336 1.50485 19.3182 1.33517 18.7896 1.3334H16.7304C16.0226 1.3334 15.4435 1.9334 15.4435 2.66674C15.4435 3.40007 16.0226 4.00007 16.7304 4.00007H18.7896L20.6685 9.3334H14.4783L14.015 8.00007H14.1308C14.8386 8.00007 15.4177 7.40007 15.4177 6.66674C15.4177 5.9334 14.8386 5.3334 14.1308 5.3334H10.2957C9.58783 5.3334 9.0087 5.9334 9.0087 6.66674C9.0087 7.40007 9.58783 8.00007 10.2957 8.00007H11.2609L13.6031 14.6667H12.7409C12.1746 11.6934 9.768 9.49341 6.75652 9.34674C3.15304 9.16007 0 12.2667 0 16.0001C0 19.7334 2.8313 22.6667 6.43478 22.6667C9.6007 22.6667 12.1617 20.4134 12.7409 17.3334H18.1461C18.7123 20.3067 21.119 22.5067 24.1304 22.6534C27.7339 22.8267 30.887 19.7334 30.887 15.9867C30.887 12.2667 28.0557 9.3334 24.4522 9.3334ZM7.72174 17.3334H10.064C9.52348 18.9734 8.00487 20.1067 6.17739 19.9867C4.25983 19.8667 2.664 18.1867 2.57391 16.1867C2.48383 13.8534 4.20835 12.0001 6.43478 12.0001C8.14643 12.0001 9.54922 13.1067 10.064 14.6667H7.72174C7.01391 14.6667 6.43478 15.2667 6.43478 16.0001C6.43478 16.7334 7.01391 17.3334 7.72174 17.3334ZM18.1461 14.6667H16.3443L15.4049 12.0001H19.3043C18.7381 12.7734 18.3263 13.6667 18.1461 14.6667ZM24.2977 20.0001C22.3158 19.9201 20.6428 18.1734 20.5913 16.1067C20.5656 14.8267 21.0932 13.7067 21.9426 12.9601L22.7405 15.2267C22.985 15.9201 23.7186 16.2801 24.3878 16.0267C25.057 15.7734 25.4045 15.0134 25.16 14.3201L24.3492 12.0134L24.3621 12.0001C24.8781 11.9818 25.3923 12.0721 25.8736 12.2655C26.355 12.4589 26.7936 12.7513 27.1628 13.1251C27.5321 13.499 27.8244 13.9465 28.022 14.4406C28.2197 14.9347 28.3187 15.4652 28.313 16.0001C28.313 18.2934 26.537 20.0801 24.2977 20.0001ZM14.1565 26.6667H9.0087L16.7304 30.6667V28.0001H21.8783L14.1565 24.0001V26.6667Z" fill="url(#paint0_linear_19_237)"/>
</g>
<defs>
<linearGradient id="paint0_linear_19_237" x1="15.4435" y1="1.3334" x2="15.4435" y2="30.6667" gradientUnits="userSpaceOnUse">
<stop stop-color="#F2B90C"/>
<stop offset="1" stop-color="#F2A50C"/>
</linearGradient>
<clipPath id="clip0_19_237">
<rect width="30.887" height="32" fill="white"/>
</clipPath>
</defs>
</svg>
