<svg width="17" height="10" viewBox="0 0 17 10" fill="none" xmlns="http://www.w3.org/2000/svg">
<path d="M15.3006 0H1.69939C0.76503 0 0.00816022 0.562472 0.00816022 1.25019L0 8.74981C0 9.43753 0.76503 10 1.69939 10H15.3006C16.235 10 17 9.43753 17 8.74981V1.25019C17 0.562472 16.235 0 15.3006 0ZM14.9599 2.65637L8.95086 5.41923C8.81529 5.4806 8.65921 5.5131 8.5 5.5131C8.34079 5.5131 8.18471 5.4806 8.04914 5.41923L2.04008 2.65637C1.95603 2.62075 1.88261 2.57305 1.82419 2.51611C1.76577 2.45917 1.72355 2.39416 1.70005 2.32495C1.67655 2.25575 1.67226 2.18378 1.68742 2.11334C1.70259 2.04289 1.7369 1.97541 1.78832 1.91493C1.83973 1.85444 1.90719 1.8022 1.98668 1.7613C2.06616 1.72041 2.15603 1.69171 2.25093 1.67692C2.34583 1.66212 2.44381 1.66154 2.53903 1.67519C2.63424 1.68885 2.72474 1.71648 2.80511 1.75641L8.5 4.37528L14.1949 1.75641C14.2753 1.71648 14.3658 1.68885 14.461 1.67519C14.5562 1.66154 14.6542 1.66212 14.7491 1.67692C14.844 1.69171 14.9338 1.72041 15.0133 1.7613C15.0928 1.8022 15.1603 1.85444 15.2117 1.91493C15.2631 1.97541 15.2974 2.04289 15.3126 2.11334C15.3277 2.18378 15.3234 2.25575 15.3 2.32495C15.2765 2.39416 15.2342 2.45917 15.1758 2.51611C15.1174 2.57305 15.044 2.62075 14.9599 2.65637Z" fill="url(#paint0_linear_23_248)"/>
<defs>
<linearGradient id="paint0_linear_23_248" x1="8.5" y1="0" x2="8.5" y2="10" gradientUnits="userSpaceOnUse">
<stop stop-color="#F2B90C"/>
<stop offset="1" stop-color="#F2A50C"/>
</linearGradient>
</defs>
</svg>
