<svg width="27" height="26" viewBox="0 0 27 26" fill="none" xmlns="http://www.w3.org/2000/svg">
<path d="M22 6.57088C22 5.15718 21.0471 4 19.883 4H17.766C17.1832 4 16.7067 4.57859 16.7067 5.28447C16.7067 5.99229 17.1832 6.57088 17.766 6.57088H19.883V9.97878L16.1985 15.5718H12.4711V10.4282C12.4711 9.72035 11.9947 9.14175 11.4134 9.14175H8.23558C7.67929 9.1415 7.12842 9.27437 6.61444 9.53278C6.10047 9.79118 5.63346 10.1701 5.24011 10.6477C4.84676 11.1254 4.53477 11.6926 4.32199 12.3167C4.10921 12.9409 3.99979 13.6099 4 14.2854V16.8563C4 17.5641 4.47644 18.1427 5.05929 18.1427H6.11699C6.11699 20.2777 7.53679 22 9.29328 22C11.0514 22 12.4696 20.2777 12.4696 18.1427H16.1969C16.8433 18.1427 17.4468 17.7821 17.8486 17.1784L21.5331 11.5853C21.8396 11.1225 21.9984 10.5554 21.9984 9.97878L22 6.57088ZM9.29487 19.4291C9.01446 19.4276 8.74592 19.2915 8.54778 19.0505C8.34965 18.8096 8.238 18.4832 8.23716 18.1427H10.3542C10.3542 18.8505 9.87771 19.4291 9.29487 19.4291Z" fill="#9C9C9C"/>
<path d="M8.00035 6H10.9999C11.5503 6 12.0003 6.55389 12.0003 7.23148C12.0003 7.90722 11.5503 8.46111 11.0014 8.46111H8.00035C7.73555 8.46014 7.48179 8.33034 7.2944 8.1C7.10701 7.86966 7.00119 7.55747 7 7.23148C7 6.55389 7.44993 6 8.00035 6ZM21.0004 14.6148C19.3402 14.6148 18.0009 16.2654 18.0009 18.3074C18.0009 20.3513 19.3402 22 21.0004 22C22.6607 22 24 20.3513 24 18.3074C24 16.2654 22.6607 14.6148 21.0004 14.6148ZM21.0004 19.5389C20.7354 19.5379 20.4814 19.4079 20.294 19.1771C20.1065 18.9464 20.0009 18.6337 20.0001 18.3074C20.0001 17.6317 20.45 17.0778 21.0004 17.0778C21.5509 17.0778 22.0008 17.6317 22.0008 18.3074C22.0008 18.985 21.5509 19.5389 21.0004 19.5389Z" fill="#9C9C9C"/>
</svg>
