<svg width="17" height="14" viewBox="0 0 17 14" fill="none" xmlns="http://www.w3.org/2000/svg">
<path d="M8.5 0C3.82515 0 0 3.15013 0 7C0 10.8499 3.82515 14 8.5 14C13.1748 14 17 10.8499 17 7C17 3.15013 13.1748 0 8.5 0ZM11.5173 9.66039L8.04914 7.90304C7.92427 7.84162 7.82098 7.75447 7.74944 7.65019C7.6779 7.5459 7.64057 7.42807 7.64113 7.30829V4.0246C7.6456 3.88521 7.71545 3.75267 7.83603 3.65478C7.9566 3.55689 8.11853 3.50127 8.28783 3.49958C8.4565 3.50068 8.61788 3.55635 8.73716 3.65457C8.85643 3.75279 8.92402 3.8857 8.92536 4.0246V7.13945L12.1895 8.75651C12.4955 8.91108 12.5975 9.23953 12.4098 9.49238C12.3175 9.6112 12.1723 9.6954 12.0053 9.72683C11.8383 9.75826 11.6631 9.7344 11.5173 9.66039Z" fill="url(#paint0_linear_23_336)"/>
<defs>
<linearGradient id="paint0_linear_23_336" x1="8.5" y1="0" x2="8.5" y2="14" gradientUnits="userSpaceOnUse">
<stop stop-color="#F2B90C"/>
<stop offset="1" stop-color="#F2A50C"/>
</linearGradient>
</defs>
</svg>
