<svg width="18" height="17" viewBox="0 0 18 17" fill="none" xmlns="http://www.w3.org/2000/svg">
<path d="M9 0C4.27524 0 0 2.78167 0 7.08429C0 9.83175 2.75656 13.0634 8.25754 16.7864C8.46541 16.9242 8.73083 17 9.0054 17C9.27997 17 9.54539 16.9242 9.75326 16.7864C15.2434 13.0634 18 9.83175 18 7.08429C18 2.78167 13.7248 0 9 0ZM9 8.63946C7.76211 8.63946 6.74966 7.86187 6.74966 6.91115C6.74966 5.96043 7.76211 5.18284 9 5.18284C10.2379 5.18284 11.2503 5.96043 11.2503 6.91115C11.2503 7.86187 10.2379 8.63946 9 8.63946Z" fill="url(#paint0_linear_23_242)"/>
<defs>
<linearGradient id="paint0_linear_23_242" x1="9" y1="0" x2="9" y2="17" gradientUnits="userSpaceOnUse">
<stop stop-color="#F2B90C"/>
<stop offset="1" stop-color="#F2A50C"/>
</linearGradient>
</defs>
</svg>
