<svg width="31" height="32" viewBox="0 0 31 32" fill="none" xmlns="http://www.w3.org/2000/svg">
<path d="M15.4427 10.6667C12.5985 10.6667 10.2948 13.0534 10.2948 16.0001C10.2948 18.9467 12.5985 21.3334 15.4427 21.3334C18.2868 21.3334 20.5905 18.9467 20.5905 16.0001C20.5905 13.0534 18.2868 10.6667 15.4427 10.6667ZM26.948 14.6667C26.6565 11.9629 25.4863 9.44211 23.6294 7.51832C21.7725 5.59453 19.3394 4.38208 16.7296 4.08006V2.66673C16.7296 1.9334 16.1505 1.3334 15.4427 1.3334C14.7348 1.3334 14.1557 1.9334 14.1557 2.66673V4.08006C11.5459 4.38208 9.11281 5.59453 7.25593 7.51832C5.39905 9.44211 4.22877 11.9629 3.93726 14.6667H2.57309C1.86526 14.6667 1.28613 15.2667 1.28613 16.0001C1.28613 16.7334 1.86526 17.3334 2.57309 17.3334H3.93726C4.22877 20.0372 5.39905 22.558 7.25593 24.4818C9.11281 26.4056 11.5459 27.618 14.1557 27.9201V29.3334C14.1557 30.0667 14.7348 30.6667 15.4427 30.6667C16.1505 30.6667 16.7296 30.0667 16.7296 29.3334V27.9201C19.3394 27.618 21.7725 26.4056 23.6294 24.4818C25.4863 22.558 26.6565 20.0372 26.948 17.3334H28.3122C29.02 17.3334 29.5992 16.7334 29.5992 16.0001C29.5992 15.2667 29.02 14.6667 28.3122 14.6667H26.948ZM15.4427 25.3334C10.4621 25.3334 6.43396 21.1601 6.43396 16.0001C6.43396 10.8401 10.4621 6.66673 15.4427 6.66673C20.4232 6.66673 24.4514 10.8401 24.4514 16.0001C24.4514 21.1601 20.4232 25.3334 15.4427 25.3334Z" fill="url(#paint0_linear_19_304)"/>
<defs>
<linearGradient id="paint0_linear_19_304" x1="15.4427" y1="1.3334" x2="15.4427" y2="30.6667" gradientUnits="userSpaceOnUse">
<stop stop-color="#F2B90C"/>
<stop offset="1" stop-color="#F2A50C"/>
</linearGradient>
</defs>
</svg>
