<svg width="31" height="32" viewBox="0 0 31 32" fill="none" xmlns="http://www.w3.org/2000/svg">
<path d="M23.1663 10.6667H21.8794V8.00006C21.8794 4.32006 18.9966 1.3334 15.4446 1.3334C11.8926 1.3334 9.0098 4.32006 9.0098 8.00006V10.6667H7.72284C6.30719 10.6667 5.14893 11.8667 5.14893 13.3334V26.6667C5.14893 28.1334 6.30719 29.3334 7.72284 29.3334H23.1663C24.582 29.3334 25.7402 28.1334 25.7402 26.6667V13.3334C25.7402 11.8667 24.582 10.6667 23.1663 10.6667ZM15.4446 22.6667C14.0289 22.6667 12.8707 21.4667 12.8707 20.0001C12.8707 18.5334 14.0289 17.3334 15.4446 17.3334C16.8602 17.3334 18.0185 18.5334 18.0185 20.0001C18.0185 21.4667 16.8602 22.6667 15.4446 22.6667ZM11.5837 10.6667V8.00006C11.5837 5.78673 13.3082 4.00006 15.4446 4.00006C17.5809 4.00006 19.3054 5.78673 19.3054 8.00006V10.6667H11.5837Z" fill="url(#paint0_linear_19_320)"/>
<defs>
<linearGradient id="paint0_linear_19_320" x1="15.4446" y1="1.3334" x2="15.4446" y2="29.3334" gradientUnits="userSpaceOnUse">
<stop stop-color="#F2B90C"/>
<stop offset="1" stop-color="#F2A50C"/>
</linearGradient>
</defs>
</svg>
