<svg width="18" height="10" viewBox="0 0 18 10" fill="none" xmlns="http://www.w3.org/2000/svg">
<path d="M17.5996 4.2002C17.8514 4.38906 18 4.68525 18 5.00001C18 5.31476 17.8514 5.61096 17.5996 5.79981L12.2666 9.79981C11.8248 10.1312 11.1976 10.0414 10.8662 9.59962C10.5353 9.1579 10.625 8.53151 11.0664 8.2002L14 6.00001H1C0.447715 6.00001 0 5.55229 0 5.00001C0 4.44772 0.447715 4.00001 1 4.00001H14L11.0664 1.79981L12.2666 0.200202L17.5996 4.2002ZM10.8662 0.400397C11.1976 -0.0414308 11.8248 -0.131169 12.2666 0.200202L11.0664 1.79981C10.625 1.46851 10.5353 0.842112 10.8662 0.400397Z" fill="#332200"/>
</svg>
