<svg width="31" height="32" viewBox="0 0 31 32" fill="none" xmlns="http://www.w3.org/2000/svg">
<path d="M7.78541 10.7334C6.1005 12.4793 5.15182 14.8456 5.14699 17.3145C5.14217 19.7834 6.0816 22.1537 7.75967 23.9067C9.65149 19.3734 13.0233 15.5867 17.2317 13.3334C13.5993 16.5176 11.1473 20.9101 10.295 25.76C13.6411 27.4 17.7593 26.8 20.5263 23.9334C24.3743 19.9467 25.4553 9.08003 25.687 6.09336C25.695 5.99846 25.6829 5.90289 25.6515 5.81336C25.6201 5.72382 25.5701 5.64252 25.5051 5.57515C25.4401 5.50779 25.3616 5.456 25.2752 5.42345C25.1887 5.39089 25.0965 5.37834 25.0049 5.3867C22.1221 5.6267 11.6334 6.7467 7.78541 10.7334Z" fill="url(#paint0_linear_19_286)"/>
<defs>
<linearGradient id="paint0_linear_19_286" x1="15.4182" y1="5.38419" x2="15.4182" y2="26.6593" gradientUnits="userSpaceOnUse">
<stop stop-color="#F2B90C"/>
<stop offset="1" stop-color="#F2A50C"/>
</linearGradient>
</defs>
</svg>
