<svg width="17" height="15" viewBox="0 0 17 15" fill="none" xmlns="http://www.w3.org/2000/svg">
<path d="M15.334 10.2294L12.93 9.98696C12.6475 9.95774 12.3611 9.98539 12.0925 10.0678C11.8238 10.1503 11.5798 10.2853 11.3788 10.4629L9.63674 11.999C6.9507 10.7934 4.76742 8.86702 3.40116 6.49698L5.15112 4.9519C5.5588 4.59318 5.75753 4.09218 5.69053 3.58216L5.41685 1.47795C5.36306 1.07055 5.14137 0.694819 4.79397 0.422289C4.44658 0.149759 3.99773 -0.000540311 3.53289 1.45956e-06H1.89649C0.82675 1.45956e-06 -0.0624256 0.785571 0.00343924 1.72845C0.505375 8.8597 6.96808 14.5541 15.0411 14.997C16.1097 15.0551 17 14.2705 17 13.3266V11.8827C17.0023 11.4744 16.8335 11.0797 16.526 10.7745C16.2185 10.4693 15.794 10.2752 15.334 10.2294Z" fill="url(#paint0_linear_23_250)"/>
<defs>
<linearGradient id="paint0_linear_23_250" x1="8.5" y1="0" x2="8.5" y2="15" gradientUnits="userSpaceOnUse">
<stop stop-color="#F2B90C"/>
<stop offset="1" stop-color="#F2A50C"/>
</linearGradient>
</defs>
</svg>
