<svg width="20" height="21" viewBox="0 0 20 21" fill="none" xmlns="http://www.w3.org/2000/svg">
<path d="M0.909525 5.0449C1.4086 5.0449 1.81769 4.63582 1.81769 4.13674V3.22721C1.81905 2.72677 2.22813 2.31769 2.72721 2.31769H3.63674C4.13581 2.31769 4.5449 1.9086 4.5449 1.40952C4.5449 0.909082 4.13581 0.5 3.63674 0.5H2.72721C1.2177 0.5 0 1.7177 0 3.22721V4.13674C0 4.63582 0.409082 5.0449 0.909525 5.0449ZM3.63674 18.681H2.72721C2.48645 18.6802 2.25573 18.5844 2.08535 18.4142C1.91498 18.2441 1.81876 18.0136 1.81769 17.7728V16.8633C1.81769 16.3628 1.4086 15.9551 0.909525 15.9551C0.409082 15.9551 0 16.3642 0 16.8633V17.7728C0 19.2823 1.2177 20.5 2.72721 20.5H3.63674C4.13581 20.5 4.5449 20.0909 4.5449 19.5905C4.5449 19.09 4.13581 18.6823 3.63674 18.6823V18.681ZM17.2728 0.5H16.3646C15.8642 0.5 15.4551 0.909082 15.4551 1.40952C15.4551 1.9086 15.8642 2.31769 16.3646 2.31769H17.2728C17.7732 2.31769 18.1823 2.72677 18.1823 3.22721V4.13674C18.1823 4.63582 18.5914 5.0449 19.0918 5.0449C19.5909 5.0449 20 4.63582 20 4.13674V3.22721C20 1.7177 18.7823 0.5 17.2728 0.5ZM19.0918 15.9537C18.5914 15.9537 18.1823 16.3628 18.1823 16.8633V17.7728C18.1823 18.2732 17.7732 18.6823 17.2728 18.6823H16.3646C15.8642 18.6823 15.4551 19.0914 15.4551 19.5905C15.4551 20.0909 15.8642 20.5 16.3646 20.5H17.2728C18.7823 20.5 20 19.2823 20 17.7728V16.8633C20 16.3628 19.5909 15.9551 19.0918 15.9551V15.9537ZM16.3619 13.1093V7.89074C16.3619 7.23621 16.0169 6.63622 15.4537 6.3185L10.9075 3.70038C10.6319 3.53868 10.3182 3.45343 9.99864 3.45343C9.67911 3.45343 9.36538 3.53868 9.08979 3.70038L4.5449 6.3076C3.98036 6.63486 3.63537 7.23485 3.63537 7.88938V13.1079C3.63537 13.7624 3.98036 14.3624 4.5449 14.6801L9.08979 17.2983C9.36538 17.46 9.67911 17.5452 9.99864 17.5452C10.3182 17.5452 10.6319 17.46 10.9075 17.2983L15.4551 14.6815C15.7322 14.5234 15.9624 14.2945 16.122 14.0183C16.2815 13.742 16.3648 13.4283 16.3633 13.1093H16.3619ZM9.08979 15.1997L5.45306 13.1093V8.89981L9.08979 11.0175V15.1997ZM9.99932 9.44525L6.3994 7.3453L9.99932 5.27262L13.5992 7.3453L9.99932 9.44525ZM14.5442 13.1093L10.9075 15.1997V11.0175L14.5442 8.89981V13.1093Z" fill="#9C9C9C"/>
</svg>
