<svg width="31" height="32" viewBox="0 0 31 32" fill="none" xmlns="http://www.w3.org/2000/svg">
<path d="M25.0432 13.3332C24.9163 13.5276 24.8411 13.7533 24.8253 13.9874C24.8095 14.2215 24.8536 14.4558 24.9531 14.6666C25.2723 15.4386 25.4975 16.2492 25.6224 17.0799C25.9536 19.2268 25.6438 21.4272 24.7344 23.3866C24.6239 23.6015 24.4588 23.781 24.2569 23.9055C24.0549 24.0301 23.824 24.095 23.589 24.0932H7.30896C7.07264 24.0937 6.84074 24.0268 6.6387 23.8998C6.43666 23.7728 6.27228 23.5906 6.16357 23.3732C5.33976 21.6418 4.9849 19.7112 5.13681 17.7873C5.28873 15.8634 5.94172 14.0182 7.02619 12.4486C8.11066 10.8789 9.58594 9.64352 11.2948 8.87416C13.0036 8.10481 14.8819 7.8303 16.7295 8.07991C17.6643 8.19374 18.5787 8.44516 19.445 8.82657C19.6484 8.92973 19.8746 8.97543 20.1005 8.95904C20.3265 8.94265 20.5443 8.86476 20.7319 8.73324C20.9274 8.59983 21.084 8.41372 21.185 8.19494C21.2859 7.97616 21.3274 7.733 21.3049 7.49162C21.2824 7.25024 21.1968 7.01979 21.0573 6.82508C20.9178 6.63036 20.7296 6.47876 20.5131 6.38657C18.027 5.28212 15.2681 5.01736 12.6285 5.6299C9.98882 6.24245 7.60257 7.70116 5.8087 9.79881C4.01482 11.8965 2.90454 14.5264 2.63557 17.3151C2.36659 20.1037 2.9526 22.9093 4.31035 25.3332C4.53494 25.7363 4.85742 26.0714 5.24575 26.3053C5.63408 26.5392 6.07473 26.6638 6.52392 26.6666H24.3483C24.8018 26.6684 25.2478 26.5461 25.641 26.312C26.0343 26.0778 26.3608 25.7402 26.5876 25.3332C27.5816 23.5485 28.1628 21.5493 28.2856 19.4927C28.4084 17.4361 28.0695 15.378 27.2954 13.4799C27.1973 13.2636 27.045 13.0785 26.8543 12.9441C26.6635 12.8097 26.4414 12.7309 26.2112 12.7159C25.981 12.7009 25.7511 12.7503 25.5456 12.8589C25.3402 12.9675 25.1666 13.1313 25.0432 13.3332Z" fill="url(#paint0_linear_19_310)"/>
<path d="M13.6278 16.7866C13.1449 17.287 12.8735 17.9656 12.8735 18.6733C12.8735 19.0237 12.9401 19.3706 13.0696 19.6943C13.199 20.018 13.3887 20.3122 13.6278 20.5599C13.867 20.8077 14.1509 21.0042 14.4633 21.1383C14.7758 21.2724 15.1107 21.3414 15.4489 21.3414C16.1319 21.3414 16.787 21.0603 17.2699 20.5599L24.5541 9.23994L13.6278 16.7866Z" fill="url(#paint1_linear_19_310)"/>
<defs>
<linearGradient id="paint0_linear_19_310" x1="15.441" y1="5.30752" x2="15.441" y2="26.6666" gradientUnits="userSpaceOnUse">
<stop stop-color="#F2B90C"/>
<stop offset="1" stop-color="#F2A50C"/>
</linearGradient>
<linearGradient id="paint1_linear_19_310" x1="18.7138" y1="9.23994" x2="18.7138" y2="21.3414" gradientUnits="userSpaceOnUse">
<stop stop-color="#F2B90C"/>
<stop offset="1" stop-color="#F2A50C"/>
</linearGradient>
</defs>
</svg>
