<svg width="161" height="60" viewBox="0 0 161 60" fill="none" xmlns="http://www.w3.org/2000/svg">
<path d="M13.1031 35.9005V43.9311C13.1031 47.9463 11.8151 49.3942 9.7681 49.3942C7.7211 49.3942 6.43425 47.9463 6.43425 43.9311V13.5726C6.43425 9.55737 7.72225 8.03053 9.76925 8.03053C11.8162 8.03053 13.1031 9.55737 13.1031 13.5726V19.5963H19.1866V14.1347C19.1866 5.13947 15.9102 0 9.5933 0C3.2752 0 0 5.13947 0 14.1347V43.3689C0 52.3642 3.2752 57.5053 9.5933 57.5053C15.9102 57.5053 19.1866 52.3642 19.1866 43.3689V35.9005H13.1031ZM37.3784 0.642632L43.93 56.8626H37.4371L36.3251 46.6626H28.4291L27.3171 56.8626H21.4095L27.9611 0.642632H37.3784ZM32.2897 10.6011L29.2479 39.0332H35.4476L32.407 10.5995H32.2909L32.2897 10.6011ZM66.9185 56.8626H60.3669C60.0162 55.4163 59.7816 54.5321 59.7816 49.9547V41.1205C59.7816 35.9005 58.4947 33.9726 55.5703 33.9726H53.3473V56.8626H46.9131V0.642632H56.6237C63.2914 0.642632 66.1572 4.89947 66.1572 13.5742V17.9905C66.1572 23.7726 64.8117 27.4674 61.9459 29.3147C65.1636 31.3216 66.2158 35.4979 66.2158 41.3621V50.0353C66.2158 52.7668 66.2757 54.7737 66.9185 56.8626ZM56.4477 8.67316H53.3473V25.9421H55.8624C58.2613 25.9421 59.7229 24.4974 59.7229 19.9989V14.4568C59.7229 10.4416 58.7293 8.67316 56.4477 8.67316ZM86.5283 0.642632L93.0798 56.8626H86.5869L85.4761 46.6626H77.579L76.4681 56.8626H70.5594L77.1109 0.642632H86.5283ZM81.4396 10.6011L78.3978 39.0332H84.5986L81.5568 10.5995H81.4396V10.6011ZM99.0322 0.642632H92.5394L98.8563 56.8626H108.45L114.767 0.642632H108.859L104.004 46.5H103.886L99.0322 0.642632ZM130.195 0.642632L136.747 56.8626H130.254L129.143 46.6626H121.246L120.134 56.8626H114.226L120.778 0.642632H130.195ZM125.106 10.6011L122.064 39.0332H128.265L125.223 10.5995H125.106V10.6011ZM154.39 56.8626H161V0.642632H155.267V34.2932H155.15L148.657 0.642632H140.585V56.8626H146.377V16.1416H146.493L154.39 56.8626Z" fill="#9C9C9C"/>
</svg>
