<svg width="174" height="62" viewBox="0 0 174 62" fill="none" xmlns="http://www.w3.org/2000/svg">
<path fill-rule="evenodd" clip-rule="evenodd" d="M26.3564 26.7872H29.4666C32.681 26.7872 34.4176 32.0207 32.3239 35.4116L29.2789 40.3398C29.6086 43.2627 30.7201 45.9054 32.3914 47.7401C34.0643 49.5757 36.1736 50.4691 38.2994 50.2423C40.4252 50.0154 42.4115 48.685 43.8628 46.5159C45.3129 44.3477 46.1204 41.4994 46.1237 38.5402C46.1234 38.0254 46.1962 37.5156 46.338 37.04C46.4798 36.5643 46.6877 36.1322 46.95 35.7683C47.2122 35.4045 47.5235 35.116 47.8661 34.9195C48.2088 34.723 48.5759 34.6222 48.9466 34.6231C49.6949 34.6235 50.4125 35.0362 50.942 35.7706C51.4714 36.5049 51.7695 37.501 51.7707 38.5402C51.7705 42.6512 50.838 46.6576 49.1057 49.9911C47.8087 52.4819 46.1086 54.5149 44.1424 55.9264C42.1761 57.3378 39.9987 58.0883 37.7854 58.1174C35.5721 58.1465 33.3848 57.4533 31.3997 56.0938C29.4146 54.7342 27.6871 52.7463 26.3564 50.29C25.0257 52.7463 23.2982 54.7342 21.313 56.0938C19.3279 57.4533 17.1406 58.1465 14.9274 58.1174C12.7141 58.0883 10.5366 57.3378 8.57036 55.9264C6.60412 54.5149 4.90403 52.4819 3.60701 49.9911C1.87428 46.6578 0.941462 42.6513 0.940919 38.5402C0.940617 38.0253 1.01348 37.5153 1.15534 37.0396C1.2972 36.5638 1.50526 36.1316 1.7676 35.7678C2.02995 35.4039 2.34142 35.1155 2.68416 34.919C3.02691 34.7226 3.3942 34.622 3.76498 34.6231C4.51329 34.6235 5.2309 35.0362 5.76035 35.7706C6.2898 36.5049 6.58784 37.501 6.58905 38.5402C6.58588 41.5041 7.38982 44.36 8.8396 46.535C9.9221 48.1588 11.3123 49.3259 12.8506 49.9025C14.389 50.479 16.0132 50.4417 17.537 49.7947C19.0608 49.1478 20.4224 47.9174 21.4656 46.2448C22.5088 44.5722 23.1914 42.525 23.435 40.3382L20.3877 35.41C18.2951 32.0207 20.0306 26.7888 23.2496 26.7888L26.3564 26.7872Z" fill="#9C9C9C"/>
<path d="M39.5334 16.3426C40.2748 16.3434 41.0089 16.1414 41.694 15.7481C42.3791 15.3548 43.0017 14.7779 43.5262 14.0504C44.0507 13.3229 44.4669 12.459 44.7509 11.5081C45.0349 10.5572 45.1813 9.53783 45.1816 8.50833C45.1813 7.47884 45.0349 6.45951 44.7509 5.50858C44.4669 4.55765 44.0507 3.69375 43.5262 2.96623C43.0017 2.23871 42.3791 1.66183 41.694 1.26853C41.0089 0.875239 40.2748 0.673239 39.5334 0.674075C38.7922 0.673448 38.0582 0.875602 37.3732 1.26899C36.6883 1.66238 36.0658 2.2393 35.5414 2.9668C35.017 3.6943 34.601 4.55812 34.317 5.50895C34.0331 6.45977 33.8867 7.47897 33.8864 8.50833C33.8867 9.53769 34.0331 10.5569 34.317 11.5077C34.601 12.4585 35.017 13.3224 35.5414 14.0499C36.0658 14.7774 36.6883 15.3543 37.3732 15.7477C38.0582 16.1411 38.7922 16.3432 39.5334 16.3426ZM13.1782 16.3426C13.9194 16.3432 14.6534 16.1411 15.3384 15.7477C16.0233 15.3543 16.6458 14.7774 17.1702 14.0499C17.6946 13.3224 18.1106 12.4585 18.3946 11.5077C18.6785 10.5569 18.8248 9.53769 18.8251 8.50833C18.8248 7.47897 18.6785 6.45977 18.3946 5.50895C18.1106 4.55812 17.6946 3.6943 17.1702 2.9668C16.6458 2.2393 16.0233 1.66238 15.3384 1.26899C14.6534 0.875602 13.9194 0.673448 13.1782 0.674075C12.4368 0.673239 11.7027 0.875239 11.0176 1.26853C10.3325 1.66183 9.70992 2.23871 9.18542 2.96623C8.66091 3.69375 8.24475 4.55765 7.96071 5.50858C7.67668 6.45951 7.53033 7.47884 7.53003 8.50833C7.53033 9.53783 7.67668 10.5572 7.96071 11.5081C8.24475 12.459 8.66091 13.3229 9.18542 14.0504C9.70992 14.7779 10.3325 15.3548 11.0176 15.7481C11.7027 16.1414 12.4368 16.3434 13.1782 16.3426ZM90.9436 2.58813C91.8136 2.58813 92.5279 2.9331 93.0865 3.62305C93.6451 4.313 93.9245 5.21915 93.9245 6.34151V45.0279C93.9245 46.1932 93.6612 47.12 93.1323 47.81C92.6057 48.4999 91.9063 48.8449 91.0374 48.8449C90.1674 48.8449 89.4691 48.4999 88.9403 47.8116C88.4126 47.12 88.1481 46.1932 88.1481 45.0295V43.4112C87.4647 45.179 86.4711 46.5588 85.1661 47.5508C83.8931 48.5428 82.4336 49.0388 80.7875 49.0388C78.83 49.0388 77.0762 48.3489 75.524 46.969C74.0015 45.5891 72.8064 43.648 71.9364 41.1458C71.0973 38.6022 70.6783 35.6914 70.6783 32.4133C70.6783 29.1353 71.0973 26.2674 71.9364 23.808C72.8064 21.3503 74.0015 19.4521 75.524 18.1152C77.0453 16.7782 78.8002 16.1089 80.7875 16.1089C82.4336 16.1089 83.8931 16.5842 85.1672 17.5333C86.4087 18.4391 87.4295 19.8346 88.1012 21.5442V6.21115C88.1012 5.13331 88.3496 4.27008 88.8464 3.62305C89.3753 2.9331 90.0736 2.58813 90.9436 2.58813ZM82.3248 42.7641C84.1885 42.7641 85.6171 41.8802 86.6107 40.1109C87.6353 38.3431 88.1481 35.8185 88.1481 32.5421C88.1481 29.264 87.6353 26.7618 86.6107 25.0385C85.6171 23.2691 84.2045 22.3836 82.3718 22.3836C80.5081 22.3836 79.0635 23.2468 78.0389 24.9733C77.0144 26.6982 76.5016 29.1782 76.5016 32.4133C76.5016 35.6914 77.0144 38.235 78.0389 40.0473C79.0635 41.8596 80.4921 42.7641 82.3248 42.7641ZM110.303 49.0388C107.975 49.0388 105.925 48.3712 104.155 47.0342C102.415 45.6972 101.064 43.7784 100.101 41.2761C99.1387 38.7739 98.6568 35.8631 98.6568 32.5421C98.6568 29.2211 99.1376 26.3309 100.101 23.8732C101.064 21.3709 102.415 19.4521 104.154 18.1152C105.925 16.7782 107.975 16.1089 110.303 16.1089C112.633 16.1089 114.667 16.7766 116.406 18.1152C118.149 19.4135 119.564 21.4232 120.459 23.8732C121.422 26.3309 121.904 29.2211 121.904 32.5421C121.904 35.8646 121.422 38.7739 120.459 41.2761C119.564 43.7261 118.149 45.7359 116.406 47.0342C114.667 48.3696 112.632 49.0388 110.303 49.0388ZM110.258 42.7641C112.152 42.7641 113.596 41.9009 114.589 40.176C115.584 38.4512 116.081 35.906 116.081 32.5421C116.081 29.2211 115.584 26.6982 114.589 24.9733C113.596 23.2039 112.167 22.32 110.303 22.32C108.441 22.32 106.995 23.2039 105.972 24.9733C104.978 26.6982 104.48 29.2211 104.48 32.5421C104.48 35.906 104.977 38.4512 105.972 40.176C106.965 41.9009 108.394 42.7641 110.258 42.7641ZM145.997 16.2393C146.867 16.2393 147.566 16.5842 148.093 17.2726C148.622 17.9641 148.886 18.8909 148.886 20.0546V45.6098C148.886 50.5698 147.892 54.3216 145.905 56.8683C143.916 59.4119 140.982 60.6837 137.099 60.6837C133.714 60.6837 130.888 59.8014 128.621 58.032C127.472 57.083 126.897 55.9399 126.897 54.603C126.897 53.6539 127.053 52.9003 127.363 52.3392C127.705 51.778 128.14 51.4966 128.667 51.4966C128.948 51.4966 129.289 51.584 129.693 51.7573C130.096 51.9719 130.516 52.2104 130.95 52.4679C131.923 53.0427 132.918 53.5395 133.932 53.9559C134.833 54.3009 135.857 54.4742 137.007 54.4742C141.075 54.4742 143.109 51.7144 143.109 46.1916V42.0519C142.426 43.8213 141.432 45.1996 140.128 46.1932C138.823 47.1423 137.333 47.616 135.656 47.616C133.667 47.616 131.898 46.969 130.344 45.6765C128.823 44.338 127.628 42.4843 126.758 40.1124C125.888 37.739 125.453 35.0014 125.453 31.8951C125.453 28.7903 125.873 26.0512 126.711 23.6793C127.581 21.2628 128.792 19.4092 130.344 18.1152C131.898 16.7782 133.667 16.1089 135.656 16.1089C137.333 16.1089 138.823 16.6049 140.128 17.5969C141.399 18.5002 142.439 19.9229 143.109 21.673V19.9911C143.109 18.8703 143.374 17.9641 143.901 17.2726C144.429 16.5842 145.129 16.2393 145.997 16.2393ZM137.193 41.3413C139.057 41.3413 140.5 40.4987 141.525 38.8184C142.581 37.1348 143.109 34.8281 143.109 31.8951C143.109 28.9191 142.581 26.5901 141.525 24.9081C140.5 23.2262 139.057 22.3852 137.193 22.3852C135.361 22.3852 133.916 23.2262 132.86 24.9081C131.805 26.5901 131.276 28.9191 131.276 31.8951C131.276 34.8281 131.805 37.1348 132.86 38.8184C133.916 40.5003 135.361 41.3413 137.193 41.3413ZM163.163 49.0388C159.778 49.0388 157.045 48.112 154.964 46.2568C153.97 45.4381 153.474 44.2728 153.474 42.7641C153.474 41.9009 153.644 41.2109 153.985 40.6943C154.328 40.1331 154.747 39.8517 155.243 39.8517C155.771 39.8517 156.502 40.1983 157.433 40.8882C158.427 41.5353 159.328 42.0313 160.135 42.3762C160.974 42.7212 162.029 42.8929 163.302 42.8929C164.607 42.8929 165.617 42.5908 166.331 41.9867C167.077 41.3826 167.449 40.5433 167.449 39.4638C167.449 38.7325 167.294 38.1491 166.983 37.7183C166.703 37.2859 166.176 36.898 165.4 36.553C164.653 36.1651 163.505 35.7343 161.952 35.259C159.188 34.4832 157.2 33.3831 155.989 31.9602C154.808 30.5374 154.219 28.5741 154.219 26.0734C154.219 24.1753 154.622 22.4711 155.43 20.9608C156.237 19.4092 157.339 18.2233 158.737 17.4029C160.166 16.5413 161.781 16.1089 163.582 16.1089C164.887 16.1089 166.145 16.3474 167.356 16.8211C168.511 17.2189 169.613 17.8739 170.617 18.7606C171.611 19.6238 172.108 20.7668 172.108 22.1913C172.108 23.0529 171.937 23.7874 171.595 24.3899C171.254 24.951 170.834 25.2324 170.337 25.2324C169.996 25.2324 169.653 25.145 169.312 24.9733C168.904 24.6843 168.5 24.3822 168.101 24.0672C167.2 23.4201 166.424 22.9464 165.772 22.6443C165.119 22.2994 164.312 22.1261 163.349 22.1261C162.2 22.1261 161.284 22.4504 160.601 23.0958C159.948 23.7428 159.622 24.6283 159.622 25.7491C159.622 26.8269 159.964 27.6473 160.648 28.2068C161.331 28.768 162.651 29.3292 164.607 29.8904C166.689 30.4945 168.319 31.1828 169.499 31.9602C170.679 32.736 171.517 33.7074 172.014 34.8711C172.543 36.0363 172.806 37.5243 172.806 39.3351C172.806 42.2681 171.921 44.6194 170.151 46.3872C168.411 48.155 166.082 49.0388 163.163 49.0388Z" fill="#9C9C9C"/>
</svg>
