<svg width="188" height="60" viewBox="0 0 188 60" fill="none" xmlns="http://www.w3.org/2000/svg">
<g clip-path="url(#clip0_6_90)">
<path d="M3.08137 47.4821C2.15054 47.4821 1.39624 47.0842 0.818488 46.2884C0.272829 45.4926 0 44.4537 0 43.1716V4.37684C0 3.09474 0.25678 2.1 0.770341 1.39263C1.316 0.685263 2.05424 0.331579 2.98507 0.331579H19.8844C21.8424 0.331579 22.8214 1.48105 22.8214 3.78C22.8214 6.03474 21.8424 7.16211 19.8844 7.16211H6.11459V19.8947H18.9215C20.8795 19.8947 21.8584 21.0442 21.8584 23.3432C21.8584 25.5979 20.8795 26.7253 18.9215 26.7253H6.11459V43.1716C6.11459 44.4537 5.84176 45.4926 5.2961 46.2884C4.75044 47.0842 4.0122 47.4821 3.08137 47.4821ZM31.6539 47.4821C30.7873 47.4821 30.0651 47.1505 29.4873 46.4874C28.9417 45.78 28.6689 44.7853 28.6689 43.5032V3.91263C28.6689 2.63053 28.9417 1.65789 29.4873 0.994737C30.0651 0.331579 30.7873 0 31.6539 0C32.5206 0 33.2428 0.331579 33.8205 0.994737C34.3983 1.65789 34.6871 2.63053 34.6871 3.91263V43.5032C34.6871 44.7853 34.3983 45.78 33.8205 46.4874C33.2428 47.1505 32.5206 47.4821 31.6539 47.4821ZM59.5261 38.1979C60.0717 38.1979 60.505 38.4853 60.826 39.06C61.1791 39.6347 61.3556 40.4084 61.3556 41.3811C61.3556 42.7516 60.7618 43.9011 59.5742 44.8295C58.4829 45.6695 57.2471 46.3547 55.867 46.8853C54.4868 47.3716 53.1708 47.6147 51.9189 47.6147C48.1314 47.6147 45.1303 46.1116 42.9156 43.1053C40.7009 40.0989 39.5935 35.9874 39.5935 30.7705C39.5935 27.4547 40.075 24.5147 41.0379 21.9505C42.0008 19.3863 43.3489 17.3968 45.0822 15.9821C46.8475 14.5674 48.8376 13.86 51.0523 13.86C53.1708 13.86 55.0164 14.5011 56.5891 15.7832C58.1619 17.0653 59.3816 18.8779 60.2483 21.2211C61.1149 23.5642 61.5482 26.3274 61.5482 29.5105C61.5482 31.4116 60.9384 32.3621 59.7187 32.3621H45.5155C45.7081 35.4126 46.334 37.6674 47.3932 39.1263C48.4524 40.5411 49.9931 41.2484 52.0152 41.2484C53.0424 41.2484 53.9411 41.0716 54.7114 40.7179C55.5139 40.3642 56.4126 39.8779 57.4076 39.2589C58.3706 38.5516 59.0767 38.1979 59.5261 38.1979ZM51.1956 19.6958C49.5586 19.6958 48.2426 20.4032 47.2476 21.8179C46.2847 23.2326 45.7069 25.2663 45.5143 27.9189H56.3954C56.3312 25.2221 55.8498 23.1884 54.951 21.8179C54.0523 20.4032 52.8005 19.6958 51.1956 19.6958ZM86.4147 40.9832C86.9924 41.7789 87.2813 42.6853 87.2813 43.7021C87.2813 44.6747 87.0085 45.5589 86.4628 46.3547C85.9171 47.1063 85.2752 47.4821 84.5369 47.4821C83.7345 47.4821 83.0444 47.0179 82.4667 46.0895L75.678 35.7442L68.8894 46.0895C68.2795 46.9737 67.5894 47.4158 66.8191 47.4158C66.113 47.4158 65.487 47.04 64.9414 46.2884C64.3957 45.5368 64.1229 44.6747 64.1229 43.7021C64.1229 42.6853 64.4118 41.7789 64.9895 40.9832L72.0189 30.4389L65.3747 20.4916C64.797 19.6958 64.5081 18.7895 64.5081 17.7726C64.5081 16.7558 64.7809 15.8937 65.3266 15.1863C65.8722 14.4347 66.4981 14.0589 67.2043 14.0589C67.9746 14.0589 68.6647 14.5011 69.2746 15.3853L75.678 25.0674L82.0815 15.3853C82.6913 14.5011 83.3814 14.0589 84.1518 14.0589C84.89 14.0589 85.5159 14.4347 86.0295 15.1863C86.5751 15.8937 86.848 16.7558 86.848 17.7726C86.848 18.7895 86.5591 19.6958 85.9813 20.4916L79.3371 30.4389L86.4147 40.9832ZM113.051 22.9453C115.009 23.6968 116.518 25.0674 117.577 27.0568C118.668 29.0463 119.214 31.4779 119.214 34.3516C119.214 38.3305 118.171 41.4474 116.084 43.7021C114.03 45.9568 111.189 47.0842 107.562 47.0842H95.1406C94.2098 47.0842 93.4715 46.7305 92.9259 46.0232C92.4123 45.3158 92.1555 44.3211 92.1555 43.0389V4.37684C92.1555 3.09474 92.4123 2.1 92.9259 1.39263C93.4715 0.685263 94.2098 0.331579 95.1406 0.331579H107.08C110.61 0.331579 113.371 1.41474 115.361 3.58105C117.383 5.70316 118.394 8.68737 118.394 12.5337C118.394 15.0095 117.913 17.1537 116.95 18.9663C116.019 20.7789 114.719 22.1053 113.05 22.9453H113.051ZM98.222 20.0274H106.07C110.339 20.0274 112.473 17.8389 112.473 13.4621C112.473 11.2516 111.944 9.61579 110.884 8.55474C109.825 7.49368 108.22 6.96316 106.07 6.96316H98.222V20.0274ZM106.888 40.4526C109.135 40.4526 110.772 39.9 111.799 38.7947C112.826 37.6895 113.34 35.9653 113.34 33.6221C113.34 31.2789 112.81 29.5326 111.751 28.3832C110.724 27.2337 109.103 26.6589 106.888 26.6589H98.222V40.4526H106.888ZM127.477 47.4821C126.61 47.4821 125.888 47.1505 125.31 46.4874C124.764 45.78 124.492 44.7853 124.492 43.5032V3.91263C124.492 2.63053 124.764 1.65789 125.31 0.994737C125.888 0.331579 126.61 0 127.477 0C128.343 0 129.065 0.331579 129.643 0.994737C130.221 1.65789 130.51 2.63053 130.51 3.91263V43.5032C130.51 44.7853 130.221 45.78 129.643 46.4874C129.065 47.1505 128.343 47.4821 127.477 47.4821ZM147.453 47.6147C145.045 47.6147 142.927 46.9295 141.097 45.5589C139.3 44.1884 137.904 42.2211 136.909 39.6568C135.914 37.0926 135.416 34.1084 135.416 30.7042C135.416 27.3 135.914 24.3379 136.909 21.8179C137.904 19.2537 139.3 17.2863 141.097 15.9158C142.927 14.5453 145.045 13.86 147.453 13.86C149.86 13.86 151.962 14.5453 153.76 15.9158C155.561 17.2469 157.023 19.3068 157.949 21.8179C158.944 24.3379 159.441 27.3 159.441 30.7042C159.441 34.1084 158.944 37.0926 157.949 39.6568C157.023 42.1679 155.561 44.2279 153.76 45.5589C151.962 46.9295 149.86 47.6147 147.453 47.6147ZM147.405 41.1821C149.363 41.1821 150.855 40.2979 151.882 38.5295C152.909 36.7611 153.423 34.1526 153.423 30.7042C153.423 27.3 152.909 24.7137 151.882 22.9453C150.855 21.1326 149.379 20.2263 147.453 20.2263C145.527 20.2263 144.034 21.1326 142.975 22.9453C141.948 24.7137 141.434 27.3 141.434 30.7042C141.434 34.1526 141.948 36.7611 142.975 38.5295C144.002 40.2979 145.479 41.1821 147.405 41.1821ZM184.342 13.9926C185.241 13.9926 185.963 14.3463 186.509 15.0537C187.054 15.7611 187.327 16.7116 187.327 17.9053V44.1C187.327 49.1842 186.3 53.0305 184.246 55.6389C182.191 58.2474 179.158 59.5516 175.146 59.5516C171.647 59.5516 168.727 58.6453 166.383 56.8326C165.196 55.86 164.602 54.6884 164.602 53.3179C164.602 52.3453 164.763 51.5716 165.083 50.9968C165.437 50.4221 165.886 50.1347 166.432 50.1347C166.72 50.1347 167.074 50.2232 167.491 50.4C167.908 50.6211 168.341 50.8642 168.791 51.1295C169.946 51.7926 170.973 52.3011 171.872 52.6547C172.803 53.0084 173.862 53.1853 175.05 53.1853C179.255 53.1853 181.357 50.3558 181.357 44.6968V40.4526C180.651 42.2653 179.624 43.68 178.276 44.6968C176.927 45.6695 175.387 46.1558 173.654 46.1558C171.599 46.1558 169.77 45.4926 168.165 44.1663C166.592 42.7958 165.356 40.8947 164.458 38.4632C163.559 36.0316 163.109 33.2242 163.109 30.0411C163.109 26.8579 163.543 24.0505 164.409 21.6189C165.308 19.1432 166.56 17.2421 168.165 15.9158C169.77 14.5453 171.599 13.86 173.654 13.86C175.387 13.86 176.927 14.3684 178.276 15.3853C179.589 16.3108 180.664 17.769 181.357 19.5632V17.8389C181.357 16.6895 181.63 15.7611 182.175 15.0537C182.721 14.3463 183.443 13.9926 184.342 13.9926ZM175.242 39.7232C177.168 39.7232 178.661 38.8611 179.72 37.1368C180.811 35.4126 181.357 33.0474 181.357 30.0411C181.357 26.9905 180.811 24.6032 179.72 22.8789C178.661 21.1547 177.168 20.2926 175.242 20.2926C173.349 20.2926 171.856 21.1547 170.765 22.8789C169.673 24.6032 169.128 26.9905 169.128 30.0411C169.128 33.0474 169.673 35.4126 170.765 37.1368C171.856 38.8611 173.349 39.7232 175.242 39.7232Z" fill="#9C9C9C"/>
</g>
<defs>
<clipPath id="clip0_6_90">
<rect width="188" height="60" fill="white"/>
</clipPath>
</defs>
</svg>
