<svg width="159" height="79" viewBox="0 0 159 79" fill="none" xmlns="http://www.w3.org/2000/svg">
<g clip-path="url(#clip0_6_92)">
<path d="M28.4965 17.0387L23.2323 61.7496H15.6689L17.5907 45.6051H9.44391L7.56108 61.7496H0L5.30648 17.0387H12.8275L10.5718 35.9166H18.7185L20.9766 17.0387H28.4965ZM44.0087 61.7496L44.2603 52.001H37.2826L35.2351 61.7496H27.2542L37.993 17.0387H51.7802L51.9484 61.7496H44.0087ZM42.2963 27.906L38.9962 43.6791H44.4697L44.9284 27.9075L42.2963 27.906ZM84.3993 17.0387L79.134 61.7496H71.5706L66.3076 37.2848L63.4662 61.7511H55.9017L61.2081 17.0387H68.9797L74.1615 39.8918L76.8759 17.0387H84.3993ZM102.044 17.0387C105.693 17.0387 108.297 18.4054 109.856 21.1372C110.999 23.207 111.569 25.7951 111.569 28.8998C111.569 30.0184 111.5 31.1971 111.362 32.439L109.732 46.2877C109.175 50.9645 107.809 54.7122 105.637 57.5278C103.463 60.3434 100.65 61.7496 97.1948 61.7496H85.0364L90.344 17.0387H102.044ZM99.4105 26.7273H96.6949L93.7288 52.061H97.6981C99.0067 52.061 100.024 51.5428 100.748 50.5094C101.5 49.4319 102.015 47.6939 102.292 45.2939L103.506 35.1092C103.611 34.2876 103.667 33.4565 103.673 32.6238C103.673 28.6896 102.253 26.7273 99.4105 26.7273ZM133.963 61.7496H112.987L118.296 17.0387H139.271L138.101 26.7273H124.647L123.686 35.1108H134.8L133.631 44.7962H122.516L121.681 52.0626H135.135L133.963 61.7496ZM157.83 61.7496H138.776L144.084 17.0387H151.605L147.469 52.0626H159L157.83 61.7496ZM84.0424 69.7064H156.728L154.458 79H81.7718L84.0424 69.7064ZM7.95 0H87.45L85.1782 9.29356H5.67825L7.95 0Z" fill="#9C9C9C"/>
</g>
<defs>
<clipPath id="clip0_6_92">
<rect width="159" height="79" fill="white"/>
</clipPath>
</defs>
</svg>
