<svg width="239" height="64" viewBox="0 0 239 64" fill="none" xmlns="http://www.w3.org/2000/svg">
<g clip-path="url(#clip0_6_94)">
<mask id="mask0_6_94" style="mask-type:luminance" maskUnits="userSpaceOnUse" x="0" y="0" width="239" height="64">
<path d="M0 0H239V64H0V0Z" fill="white"/>
</mask>
<g mask="url(#mask0_6_94)">
<path fill-rule="evenodd" clip-rule="evenodd" d="M16.0118 56.3872C15.8592 56.3853 15.7089 56.3359 15.5724 56.2428C15.436 56.1497 15.3171 56.0154 15.2248 55.8502C14.9626 55.3768 14.7856 54.8268 14.7077 54.244C14.5831 53.502 14.4872 52.7517 14.4204 51.9962C14.341 51.0232 14.3004 50.0451 14.2986 49.0662C14.275 46.9152 14.2803 44.7638 14.3147 42.6131C14.3354 41.2925 14.3446 40.2623 14.3446 39.5193V14.9308C14.3446 13.7195 14.3503 12.7985 14.3607 12.1663C14.371 11.5341 14.4066 10.8192 14.4652 10.0215C14.4997 9.42835 14.5755 8.84142 14.6939 8.26854C14.8088 7.82679 14.9616 7.40532 15.1478 7.0104C15.3201 6.59674 15.5706 6.25488 15.8751 6.02074C16.229 5.78035 16.5933 5.56805 16.9655 5.38074C17.4453 5.1385 17.9425 4.96583 18.449 4.86562C19.1089 4.73474 19.7709 4.6244 20.4345 4.53469V2.26347L19.9174 1.56103H1.62244L1.13754 2.26347V4.2022C4.20777 4.4504 5.92444 5.63362 6.28753 7.7503C6.49896 9.53761 6.60007 11.3452 6.59088 13.1544V50.8161C6.64167 52.7723 6.58059 54.731 6.40818 56.6744C6.3243 56.9772 6.20135 57.2551 6.04509 57.4986C5.8111 57.8788 5.56377 58.2434 5.30396 58.5913C5.0981 58.8615 4.90105 59.1437 4.71335 59.4373V60.8812C20.3253 60.8812 29.9888 61.0186 33.7036 61.2949L35.0077 55.3132L34.1896 54.528C28.1572 55.5599 22.0903 56.1796 16.013 56.3856L16.0118 56.3872ZM45.032 39.1446C44.9727 39.1672 44.9118 39.1808 44.8504 39.1852C44.5482 39.1852 44.3965 39.0354 44.3965 38.7325C44.3977 37.3651 44.4735 35.9993 44.624 34.6475C44.7941 33.1739 45.0779 31.7284 45.472 30.3376C45.8519 28.9274 46.3727 27.5948 47.0198 26.3774C47.7057 25.1389 48.5964 24.137 49.62 23.4526C50.6435 22.7682 51.7713 22.4204 52.9121 22.4375C53.7353 22.3755 54.5563 22.6053 55.2944 23.1045C56.0325 23.6037 56.6623 24.355 57.1221 25.2847C58.0772 27.2076 58.5745 29.4825 58.5469 31.8018C58.5429 32.227 58.4435 32.6403 58.262 32.9867C58.0805 33.3331 57.8256 33.5961 57.5312 33.7405C55.8724 34.6487 54.1785 35.434 52.457 36.0929C50.0359 37.0608 47.6228 38.0651 45.2181 39.1056C45.1552 39.1092 45.0928 39.1223 45.032 39.1446ZM63.0259 52.0149C59.3892 55.012 56.2489 56.5105 53.6061 56.5105C51.8157 56.5633 50.0577 55.8567 48.5767 54.489C47.199 53.2331 46.1035 51.4845 45.4111 49.4361C44.7294 47.3821 44.3833 45.1519 44.3965 42.8988C57.6047 37.3167 64.2692 34.5242 64.3898 34.5242C64.9144 34.3784 65.3831 33.982 65.7109 33.4069C66.0387 32.8318 66.2039 32.1161 66.1766 31.3897C66.2125 29.3647 65.863 27.3613 65.162 25.5735C64.5218 23.9745 63.5742 22.6415 62.4204 21.7163C61.2562 20.788 59.9946 20.1064 58.6791 19.6949C57.2522 19.256 55.7929 19.0413 54.33 19.0549C51.7055 18.9996 49.103 19.7102 46.6981 21.1388C44.5776 22.3831 42.7042 24.2916 41.2309 26.7083C39.842 29.0452 38.7701 31.6991 38.0653 34.546C37.3345 37.4753 36.9657 40.5488 36.9738 43.6418C36.9738 49.995 38.2377 54.7528 40.761 57.9154C43.043 60.8032 46.2649 62.2455 50.4244 62.2455C52.8093 62.2123 55.1569 61.4364 57.2865 59.9774C59.851 58.2422 62.3076 56.2271 64.6323 53.952L63.9693 52.3474L63.0259 52.0149ZM103.827 8.5183C103.015 5.63796 101.421 3.29032 99.3734 1.95908C96.8366 0.509164 94.0964 -0.166511 91.3463 -0.0202385C89.3393 -0.0358775 87.3391 0.296698 85.3942 0.96942C83.585 1.59523 81.8579 2.59724 80.2741 3.93996C78.7228 5.26857 77.454 7.12507 76.5937 9.32532C75.6599 11.732 75.1907 14.4211 75.2298 17.1411C75.2288 19.0882 75.577 21.0063 76.2444 22.7294C76.8819 24.4348 77.7446 25.9666 78.7896 27.2484C79.9133 28.595 81.1076 29.8288 82.3631 30.9401C83.6232 32.0807 84.9281 33.1271 86.2721 34.0746C87.5356 34.9569 88.7783 35.8929 89.9984 36.8812C91.0096 37.6586 91.9587 38.578 92.8308 39.6239C95.0714 42.457 96.1929 45.1513 96.1929 47.7097C96.1888 49.0687 95.9797 50.4121 95.5785 51.657C95.1773 52.902 94.5926 54.022 93.8603 54.948C93.1335 55.9644 92.2616 56.7685 91.298 57.3113C90.3345 57.854 89.2995 58.1238 88.2565 58.1042C87.0369 58.1518 85.8255 57.8197 84.715 57.1333C83.6045 56.4469 82.6243 55.4244 81.8495 54.1441C80.2416 51.6428 79.3636 48.4282 79.3813 45.1076L78.2013 44.53L72.1734 53.7288C73.551 56.4374 75.4188 58.6184 77.5969 60.0617C79.8115 61.5377 82.2484 62.2939 84.7151 62.2705C86.9659 62.2551 89.2023 61.7816 91.3497 60.8656C93.5093 59.9824 95.5687 58.698 97.4695 57.049C99.2765 55.4814 100.811 53.3988 101.967 50.9456C103.1 48.6129 103.705 45.8807 103.709 43.0861C103.718 41.5864 103.523 40.0972 103.134 38.6935C102.775 37.39 102.274 36.1664 101.65 35.0627C100.914 33.8374 100.064 32.7489 99.1195 31.8252C98.0877 30.7682 97.0103 29.7961 95.893 28.914C94.5557 27.8788 93.2026 26.8817 91.8346 25.9232C90.8807 25.295 89.9412 24.6277 89.0172 23.922C88.1433 23.2282 87.2929 22.4813 86.4686 21.6836C85.6234 20.8965 84.8511 19.9741 84.1682 18.9362C83.5681 17.9677 83.0778 16.8828 82.7135 15.7175C82.3092 14.4627 82.1029 13.1068 82.108 11.737C82.0894 10.6168 82.2364 9.50286 82.5403 8.4612C82.8443 7.41953 83.299 6.47129 83.8775 5.67264C84.4889 4.84243 85.2206 4.19383 86.0263 3.76793C86.8319 3.34203 87.6939 3.14812 88.5575 3.19849C89.6274 3.13573 90.6942 3.39526 91.6815 3.95848C92.6688 4.5217 93.5522 5.37467 94.2683 6.45625C95.7031 8.66239 96.6068 11.412 96.8582 14.3361L97.9188 14.7887L103.827 8.5183ZM133.286 24.3388C132.745 23.0513 131.961 21.9832 131.015 21.2449C130.078 20.5178 129.067 19.9829 128.016 19.6574C126.887 19.3174 125.734 19.1514 124.578 19.1626C122.373 19.1204 120.18 19.6309 118.11 20.6689C116.334 21.5452 114.706 22.899 113.324 24.6494C112.04 26.3398 110.974 28.3124 110.173 30.4843C109.35 32.6693 108.744 34.993 108.37 37.3948C108.002 39.8239 107.82 42.2982 107.826 44.7782C107.819 46.8855 108.038 48.9835 108.476 51.0034C108.901 52.9593 109.562 54.8059 110.429 56.4699C111.344 58.1862 112.571 59.5507 113.99 60.4301C115.62 61.4416 117.395 61.9427 119.185 61.8943C124.86 61.8943 130.192 58.4976 135.18 51.7058L134.574 50.5085L133.817 50.2619C130.122 54.1394 126.708 56.0781 123.578 56.0781C122.406 56.1037 121.247 55.7427 120.201 55.026C119.252 54.3862 118.426 53.4546 117.789 52.3052C117.156 51.1238 116.642 49.8336 116.259 48.4683C115.861 47.1051 115.572 45.688 115.396 44.2412C115.235 42.8769 115.154 41.497 115.153 40.1156C115.16 38.3595 115.272 36.6081 115.486 34.8769C115.724 32.9491 116.079 31.0525 116.547 29.2043C116.972 27.3981 117.709 25.7568 118.698 24.4184C119.133 23.8194 119.652 23.3448 120.224 23.0226C120.797 22.7003 121.411 22.537 122.03 22.5421C122.858 22.4801 123.682 22.733 124.41 23.2724C125.137 23.8118 125.74 24.6163 126.149 25.5954C127.086 27.8879 127.547 30.4831 127.482 33.1037L128.543 33.6812L134.269 29.0623C134.222 27.4042 133.885 25.7851 133.286 24.3388ZM144.389 36.6112C144.543 34.9909 144.812 33.3956 145.192 31.8471C145.541 30.3407 146.035 28.9062 146.661 27.5778C147.263 26.3473 148.067 25.3234 149.01 24.587C150.026 23.7897 151.183 23.3834 152.357 23.4116C153.63 23.3675 154.885 23.8181 155.976 24.7103C156.99 25.5678 157.804 26.798 158.324 28.2584C158.872 29.7679 159.268 31.3694 159.504 33.0225C159.753 34.802 159.876 36.6127 159.868 38.4266C159.868 40.0765 159.858 41.4518 159.837 42.5507C159.805 43.8745 159.734 45.1961 159.626 46.5124C159.536 47.8081 159.369 49.0896 159.126 50.3478C158.888 51.4561 158.579 52.5331 158.202 53.5665C157.855 54.5894 157.354 55.5024 156.732 56.2467C156.09 56.9592 155.362 57.5173 154.581 57.8966C153.634 58.357 152.634 58.5807 151.628 58.5569C150.521 58.5753 149.436 58.1283 148.522 57.2769C147.631 56.4661 146.891 55.3864 146.358 54.1222C145.798 52.7616 145.36 51.3146 145.055 49.8123C144.733 48.334 144.5 46.8227 144.357 45.2933C144.24 43.9724 144.179 42.6433 144.176 41.3128C144.175 39.7411 144.246 38.1709 144.389 36.6112ZM140.633 57.9388C142.834 60.6611 146.328 62.0223 151.115 62.0223C152.884 62.0379 154.649 61.7616 156.37 61.1965C157.989 60.6497 159.533 59.7515 160.941 58.5366C162.357 57.3232 163.595 55.7634 164.592 53.9364C165.682 51.8648 166.493 49.546 166.985 47.0884C167.596 44.1082 167.892 41.0252 167.864 37.9318C167.923 35.4411 167.582 32.9629 166.865 30.6691C166.149 28.3753 165.073 26.3207 163.714 24.6479C161.188 21.5696 157.523 20.0289 152.718 20.0289C147.911 20.0289 143.953 22.0504 140.842 26.0933C139.315 28.054 138.11 30.4309 137.306 33.0682C136.502 35.7055 136.118 38.5438 136.177 41.3971C136.177 48.7681 137.661 54.2814 140.63 57.9388H140.633ZM188.04 25.2676C189.656 25.2676 190.807 25.7078 191.494 26.5882C192.134 27.6496 192.539 28.939 192.659 30.3033C192.913 31.9111 193.071 33.547 193.129 35.1907C193.169 36.6346 193.19 38.4984 193.19 40.7805C193.188 43.7439 193.174 46.7072 193.145 49.6703C193.135 50.5632 193.14 51.6153 193.159 52.8266C193.165 53.7288 193.205 54.6311 193.281 55.5271C193.342 56.1202 193.422 56.7665 193.523 57.4658C193.593 58.0527 193.737 58.6162 193.947 59.1361C194.129 59.5497 194.352 59.9259 194.611 60.2521C195.52 61.3725 196.716 61.9642 197.943 61.9005C199.458 61.9005 201.194 60.8547 203.153 58.7661C204.788 56.9189 206.346 54.949 207.819 52.8656L207.122 51.4607H206.395C205.21 52.752 203.761 53.5157 202.246 53.6477C201.925 53.6727 201.603 53.6088 201.301 53.4598C200.999 53.3109 200.722 53.0801 200.488 52.7813C200.278 52.5567 200.099 52.2854 199.957 51.979C199.79 51.4393 199.683 50.8691 199.64 50.2869C199.524 49.1042 199.473 47.9114 199.488 46.7185C199.488 45.8116 199.524 44.3458 199.594 42.3259C199.65 40.8899 199.686 39.4524 199.701 38.0145V35.5388C199.72 32.8711 199.716 31.0229 199.686 29.9895C199.625 28.5797 199.508 27.1754 199.336 25.7827C199.261 24.4696 198.938 23.2051 198.398 22.1113C197.864 21.3254 197.227 20.6821 196.519 20.2147C195.557 19.5826 194.497 19.2778 193.429 19.3265C189.875 19.3265 185.755 21.3074 181.07 25.2676L180.343 24.8961C180.304 23.3792 179.941 21.9106 179.298 20.6689C178.702 19.6075 177.677 19.0799 176.223 19.0799C175.352 19.0948 174.488 19.2965 173.663 19.6777C172.704 20.1148 171.788 20.7111 170.936 21.451C170.016 22.2361 169.219 22.9651 168.542 23.6379C167.865 24.3107 167.083 25.1286 166.195 26.0918L167.315 28.1132C167.521 27.9322 167.728 27.7537 167.937 27.5778C168.289 27.275 168.597 27.0283 168.86 26.8348C169.122 26.6428 169.436 26.4164 169.799 26.1542C170.124 25.9138 170.464 25.7124 170.815 25.5517C171.083 25.4268 171.363 25.3565 171.647 25.3456C171.997 25.3347 172.343 25.4549 172.646 25.6968C172.954 25.9731 173.187 26.379 173.311 26.852C173.462 27.3515 173.593 27.8588 173.704 28.377C173.828 29.0748 173.899 29.7866 173.916 30.5031C173.958 31.4397 173.982 32.1952 173.99 32.7712C173.999 33.3472 174.003 34.2135 174.005 35.3702V36.0726C174.005 38.7669 173.853 47.0166 173.551 60.8219L174.308 61.3995L181.124 58.7177C180.922 57.5361 180.77 53.81 180.669 47.5411C180.569 41.409 180.52 35.2755 180.522 29.1419C184.036 26.5569 186.539 25.2644 188.034 25.2644L188.04 25.2676ZM217.424 39.332C217.365 39.3559 217.304 39.3706 217.243 39.3757C216.941 39.3757 216.789 39.2242 216.788 38.923C216.789 37.554 216.865 36.1897 217.017 34.8379C217.187 33.3643 217.47 31.9189 217.863 30.5265C218.244 29.1169 218.763 27.7839 219.409 26.5663C220.094 25.3274 220.985 24.3253 222.009 23.6408C223.032 22.9563 224.16 22.6088 225.301 22.6264C226.124 22.5642 226.945 22.794 227.684 23.2932C228.422 23.7923 229.052 24.5438 229.511 25.4736C230.466 27.3963 230.963 29.6714 230.935 31.9907C230.93 32.4155 230.831 32.8284 230.65 33.1747C230.469 33.5209 230.214 33.7842 229.92 33.9294C228.262 34.8371 226.568 35.6224 224.847 36.2818C222.426 37.2495 220.012 38.2538 217.607 39.2945C217.546 39.299 217.485 39.3121 217.426 39.3335L217.424 39.332ZM235.418 52.2038C231.782 55.2024 228.641 56.7009 225.997 56.6994C224.207 56.7518 222.45 56.0459 220.968 54.6795C219.591 53.4231 218.496 51.6746 217.804 49.6266C217.121 47.5717 216.775 45.3403 216.788 43.0861C229.996 37.5056 236.661 34.7146 236.782 34.7146C237.307 34.5682 237.775 34.1714 238.103 33.5961C238.431 33.0208 238.596 32.3051 238.569 31.5786C238.605 29.5535 238.255 27.5502 237.555 25.7624C236.914 24.1634 235.967 22.8303 234.813 21.9052C233.649 20.9773 232.387 20.2956 231.072 19.8838C229.644 19.4447 228.185 19.23 226.721 19.2438C224.098 19.1888 221.496 19.8994 219.092 21.3277C216.971 22.5718 215.098 24.4804 213.625 26.8972C212.235 29.2337 211.163 31.8877 210.459 34.7349C209.728 37.6641 209.36 40.7377 209.369 43.8307C209.369 50.1839 210.63 54.9401 213.155 58.1042C215.437 60.9921 218.657 62.4344 222.818 62.4344C225.203 62.4011 227.551 61.6251 229.68 60.1663C232.244 58.4308 234.701 56.4163 237.026 54.1425L236.363 52.5362L235.418 52.2038Z" fill="#9C9C9C"/>
</g>
</g>
<defs>
<clipPath id="clip0_6_94">
<rect width="239" height="64" fill="white"/>
</clipPath>
</defs>
</svg>
