<svg width="171" height="56" viewBox="0 0 171 56" fill="none" xmlns="http://www.w3.org/2000/svg">
<g clip-path="url(#clip0_6_100)">
<path d="M56.1804 55.2533V0H45.8095L24.1249 42.6347L20.4645 36.4373C27.0088 35.0933 30.6691 27.328 30.6691 19.04C30.6691 11.1253 27.4524 4.48 23.1266 1.94133C20.9637 0.672 17.747 0 13.4766 0H0V55.2533H10.0382V37.408H10.1491L19.6326 55.2533H30.2254L33.8303 47.264H45.6986V55.2533H56.1804ZM10.0382 27.776V12.3947H14.0312C17.9689 12.3947 20.6309 15.0827 20.6309 19.8613C20.6309 24.9387 18.1352 27.776 13.9758 27.776H10.0382ZM45.6986 36.064H38.8216L45.5877 20.7573H45.6986V36.064ZM98.2441 55.2533V0H88.206L88.6496 34.944L72.6773 0H63.6374V55.2533H73.6756L73.3983 21.504L89.1488 55.2533H98.2441ZM128.513 55.2533V42.8587H115.758V33.376H128.125V20.9813H115.758V12.3947H128.513V0H105.72V55.2533H128.513ZM170.18 55.2533L155.705 27.552L169.292 0H158.311L146.72 24.864H146.609V0H136.128V55.2533H146.609V31.36H146.72L157.923 55.2533H170.18Z" fill="#9C9C9C"/>
</g>
<defs>
<clipPath id="clip0_6_100">
<rect width="171" height="56" fill="white"/>
</clipPath>
</defs>
</svg>
