<svg width="230" height="77" viewBox="0 0 230 77" fill="none" xmlns="http://www.w3.org/2000/svg">
<g clip-path="url(#clip0_6_102)">
<path d="M62.5381 69.1649C58.7201 69.1649 55.7933 68.2723 53.7567 66.4872C51.7557 64.6518 50.7563 61.9725 50.7563 58.4509C50.7563 56.6658 51.1933 55.2012 52.065 54.0603C52.9747 52.8708 54.1385 52.2752 55.5564 52.2752C56.3925 52.3255 57.0284 52.6209 57.4654 53.1678C57.9024 53.6643 58.1209 54.1358 58.1209 54.582C58.1209 54.6308 57.9381 54.8052 57.5747 55.1022C57.2113 55.4008 56.8847 55.847 56.5926 56.441C56.3016 57.0382 56.1556 57.8553 56.1556 58.8972C56.1556 61.2292 56.6662 63.0395 57.6839 64.3296C58.7385 65.5695 60.3565 66.1886 62.5381 66.1886C64.0296 66.1886 65.3383 65.7926 66.4665 64.999C67.5935 64.2055 68.4479 63.1636 69.0298 61.8735C69.6474 60.5346 69.9567 59.1455 69.9567 57.706C69.9567 55.9209 69.5749 54.384 68.8113 53.0939C68.0697 51.7871 67.1422 50.6988 66.0847 49.8945C64.9922 49.0019 63.5018 47.9836 61.6112 46.8428C59.4296 45.5039 57.6667 44.2892 56.3212 43.197C54.9691 42.0988 53.7983 40.6295 52.8827 38.8819C51.9385 37.0465 51.4659 34.7899 51.4659 32.1106C51.4659 27.7955 52.5377 24.5709 54.6836 22.4385C56.8663 20.3045 59.7206 19.239 63.2476 19.239C66.0111 19.239 68.4111 20.0326 70.4478 21.6198C72.5212 23.2069 73.5574 25.5389 73.5574 28.6126C73.5574 30.3993 73.102 31.8875 72.1935 33.0786C71.3206 34.2195 70.1752 34.7899 68.7573 34.7899C67.9201 34.7396 67.2841 34.4662 66.8483 33.9712C66.4113 33.4259 66.1928 32.9293 66.1928 32.483C66.1928 32.4328 66.4297 32.2599 66.9023 31.9613C67.4118 31.6643 67.8476 31.218 68.211 30.6225C68.6112 30.0269 68.8113 29.2082 68.8113 28.1679C68.8113 26.3325 68.2846 24.893 67.2301 23.8512C66.2112 22.8093 64.9025 22.2892 63.3017 22.2892C61.0845 22.2892 59.3928 23.0089 58.2302 24.4468C57.102 25.8359 56.5385 27.5723 56.5385 29.656C56.5385 31.3909 56.8835 32.8555 57.5747 34.045C58.2647 35.1859 59.3744 36.3268 60.9016 37.4676C62.226 38.4191 63.5722 39.3126 64.9381 40.1469C67.2657 41.5848 69.1023 42.9 70.4478 44.0912C71.8332 45.2866 73.0069 46.8877 73.884 48.7788C74.8293 50.7116 75.3031 53.119 75.3031 55.9948C75.3031 58.476 74.7212 60.7326 73.5574 62.7676C72.4304 64.7508 70.8836 66.3128 68.9206 67.4536C66.9932 68.5945 64.8657 69.1649 62.5381 69.1649ZM90.153 68.5709C87.6805 68.5709 85.7164 67.5526 84.2616 65.5192C82.8069 63.4858 82.08 60.8065 82.08 57.4829V43.7172C82.08 42.4286 82.0432 41.4858 81.9708 40.8902C81.9351 40.2962 81.7166 39.7745 81.3153 39.3282C80.9162 38.8819 80.2435 38.6588 79.2982 38.6588C78.8612 38.6588 78.5346 38.5849 78.3161 38.4356C78.0976 38.2376 77.9895 37.8149 77.9895 37.1706C77.9895 36.872 78.062 36.6002 78.208 36.3535C78.3529 36.0549 78.5714 35.882 78.8623 35.8318C81.1531 35.3839 83.1173 34.7396 84.7526 33.8958C85.2621 33.649 85.6796 33.4998 86.0073 33.4495H86.1706C86.7525 33.4495 87.0446 33.9209 87.0446 34.8638V57.409C87.0446 59.6908 87.5713 61.4523 88.6259 62.6922C89.6481 63.8667 90.9451 64.5002 92.2806 64.4773C93.9895 64.4773 95.4431 63.9069 96.6437 62.766C97.8443 61.6252 98.6446 60.4843 99.0437 59.3435V43.7188C99.0437 42.4286 99.008 41.4873 98.9356 40.8902C98.8988 40.2962 98.6803 39.7745 98.2801 39.3282C97.8799 38.8819 97.2071 38.6588 96.2619 38.6588C95.8249 38.6588 95.4982 38.5849 95.2809 38.4356C95.0624 38.2376 94.9532 37.8149 94.9532 37.1706C94.9532 36.872 95.0256 36.6002 95.1717 36.3535C95.3166 36.0549 95.5351 35.882 95.826 35.8318C98.1168 35.3839 100.081 34.7396 101.717 33.8958C102.226 33.649 102.644 33.4998 102.971 33.4495H103.135C103.717 33.4495 104.008 33.9209 104.008 34.8638V60.61C104.008 63.5376 105.445 65.0006 108.317 65.0006C108.935 65.0006 109.244 65.472 109.244 66.4149C109.244 67.1079 108.935 67.5306 108.317 67.6783L99.5348 68.497C99.2806 68.497 99.1345 68.3729 99.0977 68.1262C99.0632 67.9266 99.0437 67.5558 99.0437 67.0105V62.8415H98.9356C98.1007 63.913 97.2456 64.9547 96.3711 65.9655C95.7168 66.66 94.8623 67.2556 93.8066 67.7522C92.7888 68.2975 91.571 68.5693 90.153 68.5693V68.5709ZM112.228 67.9015C112.101 67.9007 111.976 67.8599 111.862 67.7822C111.749 67.7045 111.65 67.5921 111.573 67.4536C111.428 67.1566 111.354 66.8093 111.354 66.4133C111.391 65.769 111.5 65.395 111.682 65.2976C111.865 65.1483 112.192 65.0729 112.664 65.0729C113.61 65.0729 114.282 64.8498 114.683 64.4035C115.083 63.9572 115.301 63.4355 115.337 62.8415C115.41 62.2443 115.446 61.303 115.446 60.0129V42.9739C115.446 41.6853 115.41 40.7425 115.337 40.1453C115.301 39.5513 115.083 39.0296 114.683 38.5849C114.282 38.1386 113.61 37.9139 112.664 37.9139C112.227 37.9139 111.901 37.84 111.683 37.6908C111.465 37.4928 111.356 37.0716 111.356 36.4258C111.356 36.1288 111.428 35.8553 111.574 35.6086C111.719 35.31 111.937 35.1372 112.228 35.0869C114.592 34.5903 116.538 33.946 118.065 33.1525C118.683 32.9042 119.101 32.7549 119.319 32.7062H119.483C120.065 32.7062 120.355 33.1776 120.355 34.1205V38.7326H120.519C121.792 36.9962 123.083 35.6322 124.392 34.6406C125.702 33.5988 126.883 33.0786 127.937 33.0786C129.138 33.0786 130.083 33.6978 130.775 34.9376C131.501 36.1288 131.865 37.5179 131.865 39.105C131.865 40.4942 131.557 41.734 130.938 42.8246C130.319 43.9168 129.465 44.462 128.374 44.462C127.899 44.4734 127.43 44.3199 127.011 44.0158C126.647 43.7172 126.447 43.4705 126.41 43.2725C126.447 43.1735 126.629 42.8749 126.955 42.3783C127.283 41.833 127.446 41.2139 127.446 40.5193C127.446 39.6252 127.265 38.907 126.901 38.3618C126.574 37.8149 126.119 37.543 125.537 37.543C124.92 37.543 124.138 37.9642 123.193 38.808C122.246 39.6016 121.319 40.6183 120.411 41.8582V60.0129C120.411 61.303 120.446 62.2443 120.519 62.8415C120.592 63.4355 120.828 63.9572 121.228 64.4035C121.629 64.8498 122.301 65.0729 123.247 65.0729H123.574C123.865 65.0729 124.083 65.1483 124.229 65.296C124.374 65.4453 124.464 65.8178 124.501 66.4118C124.501 66.8093 124.429 67.1566 124.283 67.4536C124.138 67.7522 123.919 67.9015 123.628 67.9015C121.721 67.7598 119.811 67.6849 117.901 67.6768C116.265 67.6768 114.374 67.7538 112.228 67.9015ZM196.946 68.5709C194.473 68.5709 192.273 67.7758 190.346 66.1886C188.418 64.5528 186.909 62.4188 185.818 59.7898C184.778 57.1885 184.234 54.2713 184.237 51.3072C184.237 47.5876 184.873 44.363 186.146 41.635C187.419 38.8568 189.037 36.7479 191 35.31C192.964 33.8219 194.946 33.0786 196.946 33.0786C199.419 33.0786 201.619 33.8958 203.547 35.5332C205.437 37.068 206.984 39.281 208.019 41.932C209.096 44.489 209.66 47.3889 209.655 50.3392C209.655 54.0603 209.001 57.31 207.692 60.0883C206.419 62.8163 204.801 64.9236 202.837 66.4118C200.874 67.8512 198.91 68.5709 196.946 68.5709ZM196.946 65.8178C199.419 65.8178 201.219 64.3783 202.346 61.501C203.51 58.6253 204.092 54.9042 204.092 50.3408C204.092 46.0743 203.491 42.603 202.292 39.9222C201.128 37.1958 199.346 35.8318 196.946 35.8318C194.437 35.8318 192.619 37.246 191.491 40.073C190.364 42.9 189.801 46.5945 189.801 51.1595C189.801 55.4243 190.382 58.9475 191.546 61.7242C192.71 64.4538 194.51 65.8178 196.946 65.8178ZM223.4 68.9418C221.618 68.9418 220.09 68.0492 218.817 66.264C217.545 64.4773 216.908 61.9238 216.908 58.6002V36.7243L213.745 36.8736C213.639 36.8748 213.534 36.8417 213.439 36.7769C213.345 36.7122 213.262 36.6177 213.2 36.5012C213.057 36.2163 212.98 35.8787 212.981 35.5332C212.981 35.0869 213.036 34.716 213.144 34.4175C213.29 34.0702 213.491 33.8722 213.745 33.8219C215.018 33.4762 216 32.9293 216.691 32.186C217.418 31.3909 217.946 30.5486 218.272 29.656C218.6 28.7132 219 27.2989 219.473 25.4132C219.655 24.7689 220.055 24.4468 220.672 24.4468C220.926 24.4468 221.182 24.5458 221.436 24.7453C221.69 24.893 221.818 25.1413 221.818 25.4886L221.436 33.9712L227.818 33.4495H227.928C228.4 33.4495 228.636 33.9209 228.636 34.8638C228.636 35.409 228.564 35.9308 228.418 36.4258C228.309 36.8736 228.163 37.0968 227.982 37.0968L221.873 36.8736V59.4928C221.873 61.1302 222.109 62.4942 222.581 63.5848C223.091 64.6769 223.908 65.2222 225.037 65.2222C226.164 65.2222 227.164 64.9488 228.036 64.4035C228.51 64.1552 228.799 64.031 228.909 64.031C229.164 64.031 229.364 64.1803 229.509 64.4773C229.655 64.7256 229.8 65.0745 229.946 65.5192C229.984 65.6361 230.003 65.7635 230 65.8916C230 66.0896 229.891 66.3128 229.672 66.561C228.618 67.5039 227.618 68.1246 226.673 68.4216C225.763 68.7673 224.672 68.9418 223.4 68.9418ZM135.237 67.4536C135.381 67.7522 135.6 67.8999 135.891 67.8999C137.78 67.7582 139.672 67.6838 141.564 67.6768C144.001 67.6768 146.273 67.7522 148.382 67.8999C148.502 67.9036 148.621 67.8644 148.726 67.7861C148.831 67.7078 148.92 67.5932 148.982 67.4536C149.127 67.155 149.2 66.8093 149.2 66.4118C149.164 65.8178 149.073 65.4453 148.927 65.296C148.818 65.1483 148.601 65.0729 148.273 65.0729H147.945C146.746 65.0729 145.891 64.9488 145.382 64.7005C144.872 64.4538 144.527 64.0059 144.346 63.3616C144.164 62.667 144.073 61.5513 144.073 60.0145V36.8705H149.855C149.982 36.8696 150.107 36.8289 150.221 36.7516C150.334 36.6742 150.433 36.5622 150.51 36.4242C150.691 36.1272 150.782 35.7799 150.782 35.3823C150.745 34.7883 150.636 34.4159 150.454 34.2666C150.31 34.0686 150.073 33.968 149.746 33.968H144.073V29.5052C144.073 27.1245 144.146 25.0408 144.29 23.254C144.426 21.4603 144.855 19.7312 145.545 18.194C146.236 16.6572 147.309 15.8888 148.764 15.8888C148.931 15.8888 149.093 15.9013 149.249 15.928C149.229 15.0944 149.269 14.2601 149.369 13.4373C149.295 13.4345 149.22 13.433 149.146 13.4326C145.945 13.5316 143.454 15.1926 141.673 18.4188C139.927 21.593 139.055 25.7353 139.055 30.844V33.9696H135.782C135.309 33.9696 134.981 34.0435 134.8 34.1928C134.618 34.2918 134.509 34.6893 134.473 35.3823C134.473 35.7799 134.545 36.1272 134.69 36.4242C134.873 36.7228 135.109 36.872 135.4 36.872H139.055V60.0129C139.055 61.3533 139.018 62.3198 138.945 62.9153C138.91 63.4606 138.691 63.9572 138.291 64.4035C137.891 64.8498 137.218 65.0729 136.273 65.0729C135.8 65.0729 135.472 65.1483 135.291 65.296C135.146 65.395 135.055 65.7675 135.018 66.4118C135.018 66.8093 135.09 67.1566 135.237 67.4536Z" fill="#9C9C9C"/>
<path fill-rule="evenodd" clip-rule="evenodd" d="M164.395 15.5021C164.394 16.5886 164.237 17.6642 163.932 18.6676C163.627 19.671 163.18 20.5825 162.617 21.35C162.055 22.1176 161.387 22.7262 160.652 23.141C159.917 23.5558 159.129 23.7688 158.334 23.7678C156.729 23.7694 155.188 22.8996 154.052 21.3496C152.915 19.7996 152.276 17.6962 152.274 15.5021C152.274 14.4153 152.432 13.3394 152.737 12.3358C153.041 11.3321 153.488 10.4203 154.051 9.65248C154.614 8.88465 155.282 8.2758 156.017 7.8607C156.751 7.4456 157.539 7.23237 158.334 7.2332C159.13 7.23216 159.917 7.44525 160.652 7.86028C161.387 8.27531 162.055 8.88415 162.618 9.65202C163.181 10.4199 163.628 11.3318 163.932 12.3355C164.237 13.3393 164.394 14.4153 164.395 15.5021ZM158.334 19.6349C158.732 19.6355 159.126 19.5291 159.493 19.3217C159.861 19.1143 160.195 18.8101 160.476 18.4263C160.757 18.0425 160.981 17.5867 161.133 17.085C161.286 16.5832 161.364 16.0453 161.365 15.5021C161.364 14.9586 161.286 14.4206 161.134 13.9187C160.981 13.4167 160.758 12.9608 160.476 12.5768C160.195 12.1928 159.861 11.8884 159.493 11.681C159.126 11.4735 158.732 11.367 158.334 11.3676C157.532 11.3672 156.762 11.8022 156.193 12.5772C155.625 13.3521 155.305 14.4035 155.304 15.5005C155.305 16.5977 155.625 17.6495 156.193 18.4248C156.761 19.2001 157.531 19.6353 158.334 19.6349ZM155.678 27.3648V67.2319C155.678 67.6766 155.77 68.0239 155.952 68.2722C156.133 68.5708 156.387 68.7185 156.715 68.7185C157.042 68.7185 157.314 68.5205 157.533 68.1245C157.751 67.7772 157.951 67.2555 158.133 66.5609C158.315 65.8663 158.478 65.3211 158.624 64.9235H158.897C161.26 67.3545 164.06 68.5692 167.296 68.5692C169.479 68.5692 171.533 67.7756 173.46 66.1885C175.388 64.6013 176.915 62.4438 178.043 59.7142C179.206 56.9375 179.788 53.8873 179.788 50.5638C179.788 47.1899 179.279 44.1901 178.26 41.5595C177.279 38.8818 175.916 36.798 174.17 35.3099C172.424 33.8218 170.478 33.0785 168.334 33.0785C167.024 33.0785 165.697 33.4493 164.351 34.1942C163.042 34.8888 161.86 35.9542 160.806 37.3936H160.642V27.4999C159.01 28.079 157.292 28.0323 155.678 27.3648ZM172.152 61.9472C170.806 64.6768 169.024 66.0408 166.806 66.0408C165.643 66.0408 164.606 65.6935 163.697 64.9989C162.824 64.3043 162.114 63.4856 161.569 62.5428C161.06 61.5512 160.752 60.6571 160.642 59.8651V40.2222C162.205 37.9389 164.133 36.798 166.425 36.798C169.006 36.798 170.951 38.1872 172.261 40.9655C173.57 43.6935 174.224 46.9919 174.224 50.8608C174.224 55.4745 173.534 59.1705 172.152 61.9472ZM14.6051 0.576625C14.9908 0.20101 15.4527 -0.000854492 15.9264 -0.000854492C16.4001 -0.000854492 16.862 0.20101 17.2478 0.576625C27.0918 10.1686 31.5538 21.6668 31.8355 38.1652C31.9655 46.0428 31.41 53.2556 29.7183 59.4863C27.9818 65.7218 24.8964 71.4811 20.3539 76.3462C20.0711 76.6465 19.7404 76.8514 19.3887 76.9442C19.037 77.0371 18.6742 77.0152 18.3299 76.8805C16.9384 76.3352 16.7015 74.0849 15.9264 72.6832C15.1513 74.0849 14.9167 76.3336 13.5229 76.8789C13.1787 77.0134 12.8162 77.0351 12.4647 76.9423C12.1133 76.8494 11.7828 76.6447 11.5001 76.3446C6.95755 71.4811 3.87095 65.7218 2.1356 59.4863C0.445101 53.2556 -0.111499 46.0428 0.0184512 38.1652C0.299051 21.6668 4.76105 10.1671 14.6051 0.576625ZM19.695 69.2402C22.5377 65.6731 24.2512 61.7838 25.4611 57.3099C26.9848 51.8413 27.4241 45.7976 27.2919 38.3098C27.0734 25.4445 24.8654 17.0735 18.1804 9.3012V32.0366C20.7944 32.9543 21.9674 36.4523 21.9674 40.3023C21.9674 44.1555 20.7944 47.6535 18.1804 48.5712V67.1722C18.1804 67.1722 19.3948 68.7012 19.695 69.2402ZM12.1188 69.2402C9.27595 65.6731 7.6027 61.7838 6.39175 57.3099C4.86915 51.8413 4.42985 45.7976 4.56325 38.3098C4.78175 25.4712 6.9771 17.0641 13.6345 9.3012V32.0366C11.0205 32.9543 9.84635 36.4523 9.84635 40.3023C9.84635 44.1555 11.0194 47.6535 13.6345 48.5712V67.1722C13.6345 67.1722 12.4086 68.7201 12.1188 69.2402ZM15.9069 36.1695C15.104 36.1686 14.3337 36.6035 13.7655 37.3786C13.1973 38.1536 12.8775 39.2053 12.8766 40.3023C12.8766 42.5872 14.2336 44.4368 15.9069 44.4368C16.7097 44.4376 17.48 44.0027 18.0482 43.2277C18.6165 42.4527 18.9362 41.401 18.9371 40.3039C18.9371 38.0206 17.5801 36.1695 15.9069 36.1695Z" fill="#9C9C9C"/>
</g>
<defs>
<clipPath id="clip0_6_102">
<rect width="230" height="77" fill="white"/>
</clipPath>
</defs>
</svg>
