<svg width="225" height="54" viewBox="0 0 225 54" fill="none" xmlns="http://www.w3.org/2000/svg">
<path d="M24.8464 52.3403C23.4995 52.3904 22.1651 51.9703 20.9663 51.1189C19.774 50.2736 18.7571 49.0218 18.0115 47.4819C15.6638 50.4654 12.6221 52.1886 9.43622 52.3403C3.71135 52.3403 0.608418 46.8386 1.6565 38.9515C2.45319 33.021 6.0176 27.0778 7.01403 22.3068C5.08546 20.7058 2.22245 19.5909 0.880485 22.8626L0 22.1336C0.702551 18.5474 2.40038 16.1619 4.85357 16.1619C7.30676 16.1619 9.12054 18.1472 11.4589 16.3191H13.3244C12.3291 23.463 9.81275 29.1775 8.47079 39.1802C7.65344 45.3108 9.17334 48.0965 11.7425 48.0965C13.6403 47.7736 15.3861 46.4967 16.6477 44.5087C15.6232 41.0204 15.1067 37.2865 15.1278 33.5213C15.1278 24.8336 18.0528 15.6759 22.9592 15.6759C25.4755 15.6759 27.3409 18.0614 27.3409 23.7203C27.3409 29.3776 24.8258 38.1367 21.6172 43.6368C21.7906 44.947 22.2945 46.1335 23.0407 46.9927C23.7869 47.8503 24.7293 48.3268 25.7062 48.3395C30.3819 48.3395 33.6524 38.7783 33.6524 29.935C33.6524 21.0918 30.8434 21.4904 31.0844 18.5045C31.1061 18.1314 31.1809 17.7679 31.3044 17.4348C31.4279 17.1017 31.5978 16.8057 31.8042 16.5637C32.2221 16.0713 32.7662 15.8252 33.3172 15.876C34.7751 15.876 36.6922 18.3902 36.6922 28.593C36.6922 41.5943 31.6194 52.3403 24.8464 52.3403ZM23.788 20.1626C22.3301 20.1626 20.925 27.4923 20.7471 35.065C20.679 36.6844 20.7001 38.3085 20.8102 39.9235C23.0087 34.9699 24.3504 29.3807 24.7305 23.5916C24.7201 21.0187 24.3746 20.161 23.7869 20.161L23.788 20.1626ZM46.296 52.0115C45.6847 52.0977 45.0671 51.9996 44.4857 51.7241C43.9066 51.4502 43.3777 51.0047 42.936 50.4185C42.4971 49.8356 42.1568 49.1257 41.9395 48.3395C41.7227 47.5567 41.6348 46.7167 41.6824 45.8809C41.6824 42.3805 45.0172 24.9337 45.0172 22.0622C45.0172 20.7058 44.7865 19.9053 43.906 19.9053C42.9236 20.1235 42.0087 20.734 41.2737 21.6619V19.1906C42.8 17.2751 44.7701 16.1758 46.8298 16.0904C47.445 16.0147 48.0648 16.123 48.6471 16.408C49.2279 16.6939 49.756 17.1466 50.1957 17.739C50.6342 18.3298 50.974 19.0445 51.1898 19.8355C51.4045 20.6232 51.4917 21.4666 51.4423 22.3052C51.4423 25.8056 48.1098 43.1809 48.1098 46.0382C48.1098 47.3961 48.3394 48.1966 49.221 48.1966C50.1902 47.9737 51.0986 47.3962 51.8522 46.5242V48.9097C50.3317 50.8382 48.3581 51.94 46.296 52.0115ZM50.3839 1.58664C50.8408 1.56758 51.2954 1.68193 51.7167 1.92652C52.1369 2.17111 52.5145 2.5364 52.8199 2.99858C53.1264 3.45723 53.3557 4.00424 53.4911 4.60019C53.6264 5.19615 53.6646 5.82623 53.6028 6.44505C53.4901 7.76631 53.0325 8.98513 52.3159 9.87246C51.5933 10.7679 50.6627 11.2756 49.6929 11.3035C49.2365 11.3235 48.7824 11.2075 48.3612 10.9636C47.9414 10.7209 47.5646 10.3552 47.2569 9.89152C46.9503 9.43287 46.7211 8.88586 46.5857 8.28991C46.4503 7.69395 46.4122 7.06387 46.474 6.44505C46.5868 5.12383 47.0444 3.90506 47.7608 3.01764C48.4837 2.12289 49.4142 1.61423 50.3839 1.58664ZM63.3628 44.5246C63.07 46.6814 63.248 48.1823 64.3592 48.1823C65.3318 47.9751 66.2431 47.3958 66.9903 46.5099L67.0948 48.9097C65.5687 50.8258 63.5985 51.9257 61.5386 52.0115C57.9111 52.0115 56.5071 48.4253 57.0421 43.9671L60.6065 16.3191C61.7912 7.08828 61.3814 5.87328 57.7538 5.87328L57.9846 3.64499L68.9189 1.6724L63.3628 44.5246ZM94.112 44.4515C93.8181 46.6099 93.9329 48.1966 95.1073 48.1966C96.082 47.9446 96.9906 47.3377 97.7395 46.4384V48.9097C96.2233 50.8473 94.247 51.9506 92.1834 52.0115C91.1396 52.1162 90.1046 51.6829 89.2779 50.7949C88.4577 49.9158 87.9075 48.6407 87.7374 47.2246C86.8574 48.8105 85.728 50.0983 84.4347 50.9903C83.1348 51.8882 81.7054 52.3692 80.2527 52.3975C73.3018 52.3975 70.3768 44.0386 71.7187 33.993C73.0607 23.949 79.3182 15.7473 86.3954 15.7473C88.0685 15.6988 89.7235 16.2341 91.2076 17.3038L91.3856 16.0332C92.77 6.20205 92.1306 5.87328 88.5031 5.87328L88.681 3.64499L99.667 1.6724L94.1108 44.4531L94.112 44.4515ZM86.5733 19.3479C82.5371 19.3479 79.8543 25.8771 78.7948 33.9215C77.6835 42.3662 78.3861 48.2109 82.1812 48.2109C84.7492 48.2109 87.6742 43.9226 88.5547 37.3791L90.7152 20.8059C89.466 19.7744 88.0269 19.2678 86.5733 19.3479ZM112.584 52.4102C104.459 52.4102 102.236 44.4372 103.233 36.793L105.884 16.3191C107.111 7.07558 106.703 5.80181 103.075 5.80181L103.305 3.57352L114.271 1.6724L112.049 19.0334C113.764 17.0067 115.928 15.8522 118.182 15.7616C125.258 15.7616 128.582 23.9633 127.303 34.0073C126.024 44.0529 119.514 52.4102 112.584 52.4102ZM116.379 19.548C115.2 19.5799 114.058 20.1207 113.113 21.0949C112.175 22.0615 111.483 23.4159 111.137 24.9623L109.502 37.8222C108.505 45.4664 110.498 48.5809 113.014 48.5809C116.693 48.5809 118.979 43.0094 120.205 33.85C121.296 25.6484 120.3 19.5909 116.369 19.5909L116.379 19.548ZM138.384 38.637C138.384 44.7676 140.543 48.0393 144.674 48.0393C146.771 48.0393 149.821 46.0541 151.751 43.4239L152.568 45.9667C151.178 47.9727 149.513 49.5752 147.67 50.6806C145.82 51.7905 143.829 52.3831 141.812 52.4245C135.68 52.4245 131.527 46.2097 131.527 37.765C131.527 25.2625 139.128 15.7759 146.436 15.7759C150.881 15.7759 153.386 19.1192 153.386 23.0199C153.334 29.0774 149.12 35.8798 138.384 38.637ZM145.922 19.4336C142.588 19.4336 139.381 26.0486 138.499 35.5225C145.219 33.2926 148.081 27.0778 148.144 23.0913C148.134 20.863 147.368 19.4336 145.911 19.4336H145.922ZM177.237 52.0115C176.193 52.1161 175.158 51.6827 174.331 50.7949C173.511 49.9156 172.962 48.6405 172.792 47.2246C171.944 48.8097 170.841 50.1001 169.571 50.9935C168.294 51.8924 166.885 52.3723 165.453 52.3959C158.618 52.3959 155.693 44.0386 157.066 33.993C158.439 23.949 164.593 15.76 171.691 15.76C173.195 15.7495 174.685 16.1584 176.073 16.9623H182.74L179.165 44.4515C178.872 46.6099 178.987 48.1966 180.162 48.1966C181.136 47.9442 182.044 47.3373 182.793 46.4384V48.9097C181.277 50.8472 179.3 51.9504 177.237 52.0115ZM171.859 19.3479C167.937 19.3479 165.191 25.8771 164.142 33.9215C163.031 42.3662 163.797 48.2109 167.287 48.2109C169.971 48.2109 172.844 43.7527 173.662 37.3791L175.821 20.8059C174.642 19.7744 173.263 19.2657 171.869 19.3479H171.859ZM203.195 25.1624C201.611 25.1624 201.202 23.4916 200.741 21.7334C200.584 20.8447 200.207 20.0602 199.675 19.5162C199.139 18.9677 198.482 18.6912 197.816 18.7332C196.951 18.6698 196.099 19.0511 195.425 19.8037C194.756 20.5488 194.314 21.6156 194.189 22.7912C194.011 24.9496 195.184 26.7776 197.406 29.4062L200.384 32.7494C201.491 33.8894 202.35 35.4276 202.868 37.1965C203.384 38.9594 203.537 40.8812 203.309 42.7521C202.554 48.7239 198.928 52.3959 194.073 52.3959C188.223 52.3959 184.491 47.6947 184.899 44.5087C184.995 43.6717 185.305 42.9046 185.775 42.3519C186.246 41.796 186.846 41.4879 187.469 41.4799C188.989 41.4799 189.565 43.0666 190.037 45.1376C190.34 46.3288 190.922 47.3485 191.693 48.0409C192.467 48.734 193.384 49.059 194.304 48.9669C195.212 49.0265 196.105 48.6205 196.811 47.8265C197.51 47.0393 197.97 45.9167 198.099 44.6818C198.329 41.823 197.051 40.0664 194.65 37.1075L191.725 33.607C190.697 32.5377 189.893 31.1084 189.397 29.4665C188.904 27.8328 188.737 26.0455 188.915 24.292C189.44 20.4628 192.06 15.7188 198.088 15.7188C202.764 15.7188 205.689 19.305 205.427 22.1765C205.398 22.9685 205.152 23.7153 204.739 24.265C204.325 24.8178 203.773 25.1386 203.195 25.1624ZM224.591 20.1626H218.919L216.173 41.337C215.586 45.7237 216.057 47.7106 217.808 47.7106C218.741 47.7106 220.208 46.9959 222.306 44.0529L222.421 47.1531C221.468 48.69 220.288 49.9251 218.959 50.7743C217.625 51.6283 216.175 52.0788 214.705 52.0957C210.732 52.0957 208.74 48.268 209.684 41.1798L212.43 20.1626H207.995L208.342 16.8909H212.818L213.992 7.41705H220.534L219.307 16.8893H224.979L224.591 20.1626Z" fill="#9C9C9C"/>
</svg>
