<svg width="24" height="24" viewBox="0 0 24 24" fill="none" xmlns="http://www.w3.org/2000/svg">
<path d="M19.2083 10.375H18.4225L16.7933 5.4025C16.6585 4.99249 16.4134 4.63819 16.0913 4.3874C15.7691 4.13662 15.3853 4.0014 14.9917 4H13.4583C12.9312 4 12.5 4.47812 12.5 5.0625C12.5 5.64688 12.9312 6.125 13.4583 6.125H14.9917L16.3908 10.375H11.7812L11.4363 9.3125H11.5225C12.0496 9.3125 12.4808 8.83438 12.4808 8.25C12.4808 7.66562 12.0496 7.1875 11.5225 7.1875H8.66667C8.13958 7.1875 7.70833 7.66562 7.70833 8.25C7.70833 8.83438 8.13958 9.3125 8.66667 9.3125H9.38542L11.1296 14.625H10.4875C10.0658 12.2556 8.27375 10.5025 6.03125 10.3856C3.34792 10.2369 1 12.7125 1 15.6875C1 18.6625 3.10833 21 5.79167 21C8.14917 21 10.0562 19.2044 10.4875 16.75H14.5125C14.9342 19.1194 16.7262 20.8725 18.9687 20.9894C21.6521 21.1275 24 18.6625 24 15.6769C24 12.7125 21.8917 10.375 19.2083 10.375ZM6.75 16.75H8.49417C8.09167 18.0569 6.96083 18.96 5.6 18.8644C4.17208 18.7687 2.98375 17.43 2.91667 15.8363C2.84958 13.9769 4.13375 12.5 5.79167 12.5C7.06625 12.5 8.11083 13.3819 8.49417 14.625H6.75C6.22292 14.625 5.79167 15.1031 5.79167 15.6875C5.79167 16.2719 6.22292 16.75 6.75 16.75ZM14.5125 14.625H13.1708L12.4713 12.5H15.375C14.9533 13.1162 14.6467 13.8281 14.5125 14.625ZM19.0933 18.875C17.6175 18.8113 16.3717 17.4194 16.3333 15.7725C16.3142 14.7525 16.7071 13.86 17.3396 13.265L17.9337 15.0713C18.1158 15.6238 18.6621 15.9106 19.1604 15.7088C19.6588 15.5069 19.9175 14.9012 19.7354 14.3487L19.1317 12.5106L19.1412 12.5C19.5255 12.4855 19.9084 12.5574 20.2668 12.7115C20.6253 12.8656 20.9518 13.0986 21.2268 13.3965C21.5018 13.6944 21.7194 14.051 21.8666 14.4448C22.0139 14.8385 22.0876 15.2613 22.0833 15.6875C22.0833 17.515 20.7608 18.9387 19.0933 18.875Z" fill="url(#paint0_linear_35_174)"/>
<defs>
<linearGradient id="paint0_linear_35_174" x1="12.5" y1="4" x2="12.5" y2="21" gradientUnits="userSpaceOnUse">
<stop stop-color="#FFB60D"/>
<stop offset="1" stop-color="#E59317"/>
</linearGradient>
</defs>
</svg>
