<svg width="33" height="31" viewBox="0 0 33 31" fill="none" xmlns="http://www.w3.org/2000/svg">
<g clip-path="url(#clip0_10_29)">
<path d="M33 15.5945C33 7.03461 25.6121 0.0944824 16.5 0.0944824C7.38787 0.0944824 0 7.03461 0 15.5945C0 23.3315 6.0335 29.7434 13.9219 30.9059V20.0753H9.73225V15.5932H13.9219V12.1807C13.9219 8.29656 16.3858 6.14981 20.1548 6.14981C21.9587 6.14981 23.848 6.45336 23.848 6.45336V10.2677H21.7663C19.7162 10.2677 19.0768 11.4624 19.0768 12.6883V15.5945H23.6528L22.9213 20.0765H19.0768V30.9072C26.9665 29.7434 33 23.3303 33 15.5945Z" fill="white"/>
</g>
<defs>
<clipPath id="clip0_10_29">
<rect width="33" height="31" fill="white"/>
</clipPath>
</defs>
</svg>
