<svg width="50" height="40" viewBox="0 0 50 40" fill="none" xmlns="http://www.w3.org/2000/svg">
<g clip-path="url(#clip0_23_253)">
<path d="M37.7319 20.3036C37.7319 9.19139 29.2845 0.181946 18.8657 0.181946C8.44684 0.181946 -0.000488281 9.19139 -0.000488281 20.3036C-0.000488281 30.3475 6.89825 38.6712 15.9178 40.1803V26.1204H11.1274V20.3018H15.9178V15.8718C15.9178 10.8296 18.7352 8.04277 23.0445 8.04277C25.1072 8.04277 27.2674 8.43683 27.2674 8.43683V13.3884H24.8872C22.5431 13.3884 21.812 14.9394 21.812 16.5308V20.3036H27.0442L26.2078 26.122H21.812V40.1819C30.8331 38.6712 37.7319 30.3459 37.7319 20.3036Z" fill="url(#paint0_linear_23_253)"/>
</g>
<defs>
<linearGradient id="paint0_linear_23_253" x1="18.8657" y1="0.181946" x2="18.8657" y2="40.1819" gradientUnits="userSpaceOnUse">
<stop stop-color="#F2B90C"/>
<stop offset="1" stop-color="#F2A50C"/>
</linearGradient>
<clipPath id="clip0_23_253">
<rect width="50" height="40" fill="white"/>
</clipPath>
</defs>
</svg>
