<svg width="33" height="31" viewBox="0 0 33 31" fill="none" xmlns="http://www.w3.org/2000/svg">
<g clip-path="url(#clip0_10_31)">
<path d="M16.5 0C12.0175 0 11.4579 0.019375 9.69788 0.093C7.94063 0.1705 6.74437 0.430125 5.6925 0.81375C4.60763 1.209 3.68638 1.73987 2.76925 2.60141C1.85212 3.46296 1.28563 4.32709 0.86625 5.3475C0.457875 6.33563 0.180125 7.45938 0.099 9.11013C0.0165 10.7635 0 11.2891 0 15.5C0 19.7109 0.020625 20.2365 0.099 21.8899C0.1815 23.5394 0.457875 24.6644 0.86625 25.6525C1.287 26.6704 1.85212 27.537 2.76925 28.3986C3.68638 29.2589 4.60625 29.7923 5.6925 30.1863C6.74575 30.5686 7.942 30.8308 9.69788 30.907C11.4579 30.9845 12.0175 31 16.5 31C20.9825 31 21.5421 30.9806 23.3021 30.907C25.058 30.8295 26.2556 30.5686 27.3075 30.1863C28.391 29.791 29.3136 29.2589 30.2308 28.3986C31.1465 27.537 31.7143 26.6742 32.1338 25.6525C32.5408 24.6644 32.8198 23.5394 32.901 21.8899C32.9835 20.2365 33 19.7109 33 15.5C33 11.2891 32.9794 10.7635 32.901 9.11013C32.8185 7.46066 32.5408 6.33434 32.1338 5.3475C31.713 4.32837 31.1465 3.46296 30.2308 2.60141C29.3136 1.73987 28.3952 1.20771 27.3075 0.81375C26.2556 0.430125 25.058 0.169209 23.3021 0.093C21.5421 0.0155 20.9825 0 16.5 0ZM16.5 2.79C20.9042 2.79 21.4294 2.81066 23.1688 2.88171C24.7775 2.95275 25.6506 3.20334 26.2309 3.41775C27.0036 3.69804 27.5509 4.03387 28.1312 4.57509C28.7072 5.11759 29.0648 5.63296 29.3631 6.35888C29.5886 6.90396 29.8581 7.72416 29.931 9.23541C30.0094 10.8706 30.0272 11.3615 30.0272 15.5C30.0272 19.6385 30.0066 20.1306 29.9255 21.7646C29.8416 23.2759 29.5735 24.096 29.3466 24.6411C29.0387 25.367 28.688 25.8811 28.1105 26.4262C27.5344 26.9674 26.9775 27.3033 26.213 27.5835C25.6355 27.7954 24.7487 28.0485 23.1399 28.117C21.3881 28.1906 20.8725 28.2074 16.4587 28.2074C12.0437 28.2074 11.528 28.188 9.77762 28.1119C8.1675 28.033 7.28062 27.7811 6.70312 27.568C5.92075 27.2787 5.38313 26.9494 4.807 26.4069C4.22813 25.8656 3.85825 25.3425 3.5695 24.6244C3.34262 24.0819 3.07588 23.2487 2.992 21.7375C2.93012 20.11 2.90812 19.6075 2.90812 15.4806C2.90812 11.3525 2.93012 10.8487 2.992 9.20184C3.07588 7.69059 3.34262 6.85875 3.5695 6.31625C3.85825 5.58 4.22813 5.07625 4.807 4.53246C5.38313 3.99125 5.92075 3.6425 6.70312 3.37254C7.28062 3.15812 8.14825 2.90625 9.757 2.82875C11.5101 2.77063 12.0257 2.75125 16.4381 2.75125L16.5 2.79ZM16.5 7.54075C11.8181 7.54075 8.02725 11.1058 8.02725 15.5C8.02725 19.8981 11.8223 23.4592 16.5 23.4592C21.1819 23.4592 24.9727 19.8942 24.9727 15.5C24.9727 11.1019 21.1777 7.54075 16.5 7.54075ZM16.5 20.6666C13.4612 20.6666 11 18.3546 11 15.5C11 12.6454 13.4612 10.3334 16.5 10.3334C19.5388 10.3334 22 12.6454 22 15.5C22 18.3546 19.5388 20.6666 16.5 20.6666ZM27.2882 7.22687C27.2882 8.25375 26.4 9.08687 25.3082 9.08687C24.2151 9.08687 23.3282 8.25246 23.3282 7.22687C23.3282 6.20129 24.2165 5.36816 25.3082 5.36816C26.3987 5.36687 27.2882 6.20129 27.2882 7.22687Z" fill="white"/>
</g>
<defs>
<clipPath id="clip0_10_31">
<rect width="33" height="31" fill="white"/>
</clipPath>
</defs>
</svg>
