<svg width="50" height="40" viewBox="0 0 50 40" fill="none" xmlns="http://www.w3.org/2000/svg">
<g clip-path="url(#clip0_23_255)">
<path d="M18.8667 6.10352e-05C13.7413 6.10352e-05 13.1015 0.0252883 11.0891 0.121152C9.07983 0.222061 7.71204 0.560106 6.50932 1.05961C5.26887 1.57424 4.21551 2.26547 3.16686 3.38724C2.11822 4.50902 1.47048 5.63416 0.990962 6.96279C0.524024 8.24938 0.206444 9.71256 0.113685 11.8619C0.0193545 14.0147 0.000488281 14.6991 0.000488281 20.1819C0.000488281 25.6646 0.024071 26.3491 0.113685 28.5018C0.208016 30.6496 0.524024 32.1144 0.990962 33.401C1.47205 34.7263 2.11822 35.8547 3.16686 36.9766C4.21551 38.0966 5.2673 38.7912 6.50932 39.3041C7.7136 39.802 9.0814 40.1433 11.0891 40.2426C13.1015 40.3435 13.7413 40.3637 18.8667 40.3637C23.992 40.3637 24.6318 40.3385 26.6442 40.2426C28.652 40.1417 30.0213 39.802 31.224 39.3041C32.4629 38.7895 33.5178 38.0966 34.5665 36.9766C35.6136 35.8547 36.2628 34.7313 36.7424 33.401C37.2078 32.1144 37.5268 30.6496 37.6196 28.5018C37.714 26.3491 37.7328 25.6646 37.7328 20.1819C37.7328 14.6991 37.7092 14.0147 37.6196 11.8619C37.5253 9.71424 37.2078 8.2477 36.7424 6.96279C36.2613 5.63583 35.6136 4.50902 34.5665 3.38724C33.5178 2.26547 32.4676 1.57257 31.224 1.05961C30.0213 0.560106 28.652 0.22038 26.6442 0.121152C24.6318 0.0202429 23.992 6.10352e-05 18.8667 6.10352e-05ZM18.8667 3.63279C23.9024 3.63279 24.5029 3.65969 26.4918 3.7522C28.3312 3.8447 29.3295 4.17097 29.993 4.45015C30.8765 4.8151 31.5023 5.25238 32.1658 5.95707C32.8244 6.66343 33.2332 7.33447 33.5744 8.27965C33.8322 8.98938 34.1404 10.0573 34.2237 12.0251C34.3133 14.1542 34.3337 14.7933 34.3337 20.1819C34.3337 25.5704 34.3102 26.2112 34.2175 28.3387C34.1215 30.3065 33.8149 31.3743 33.5555 32.0841C33.2034 33.0292 32.8025 33.6987 32.1422 34.4084C31.4834 35.113 30.8467 35.5503 29.9726 35.9152C29.3123 36.1911 28.2982 36.5207 26.4588 36.6099C24.4558 36.7057 23.8662 36.7276 18.8195 36.7276C13.7713 36.7276 13.1817 36.7023 11.1803 36.6032C9.33924 36.5005 8.32519 36.1726 7.66487 35.8951C6.7703 35.5184 6.15558 35.0896 5.49683 34.3832C4.83494 33.6785 4.41202 32.9973 4.08187 32.0623C3.82246 31.3559 3.51746 30.2711 3.42155 28.3034C3.3508 26.1843 3.32565 25.5301 3.32565 20.1567C3.32565 14.7816 3.3508 14.1257 3.42155 11.9813C3.51746 10.0136 3.82246 8.93052 4.08187 8.22415C4.41202 7.26552 4.83494 6.60961 5.49683 5.90157C6.15558 5.19688 6.7703 4.74279 7.66487 4.39128C8.32519 4.11211 9.31723 3.78415 11.1567 3.68324C13.1612 3.60756 13.7507 3.58233 18.7959 3.58233L18.8667 3.63279ZM18.8667 9.81852C13.5134 9.81852 9.17888 14.4603 9.17888 20.1819C9.17888 25.9085 13.5181 30.5452 18.8667 30.5452C24.2199 30.5452 28.5544 25.9034 28.5544 20.1819C28.5544 14.4553 24.2152 9.81852 18.8667 9.81852ZM18.8667 26.9091C15.3921 26.9091 12.578 23.8987 12.578 20.1819C12.578 16.465 15.3921 13.4546 18.8667 13.4546C22.3412 13.4546 25.1553 16.465 25.1553 20.1819C25.1553 23.8987 22.3412 26.9091 18.8667 26.9091ZM31.202 9.40983C31.202 10.7469 30.1864 11.8317 28.938 11.8317C27.6881 11.8317 26.6741 10.7452 26.6741 9.40983C26.6741 8.07447 27.6898 6.98969 28.938 6.98969C30.1848 6.98802 31.202 8.07447 31.202 9.40983Z" fill="url(#paint0_linear_23_255)"/>
</g>
<defs>
<linearGradient id="paint0_linear_23_255" x1="18.8667" y1="6.10352e-05" x2="18.8667" y2="40.3637" gradientUnits="userSpaceOnUse">
<stop stop-color="#F2B90C"/>
<stop offset="1" stop-color="#F2A50C"/>
</linearGradient>
<clipPath id="clip0_23_255">
<rect width="50" height="40" fill="white"/>
</clipPath>
</defs>
</svg>
