<svg width="33" height="31" viewBox="0 0 33 31" fill="none" xmlns="http://www.w3.org/2000/svg">
<path d="M32.3098 7.99016C32.1233 7.33047 31.7557 6.72837 31.2436 6.24416C30.7316 5.75995 30.093 5.41062 29.392 5.23116C26.8194 4.57886 16.5 4.57886 16.5 4.57886C16.5 4.57886 6.18062 4.57886 3.60662 5.23116C2.90594 5.41094 2.26778 5.76039 1.75598 6.24456C1.24418 6.72875 0.876688 7.33068 0.69025 7.99016C0 10.4237 0 15.4999 0 15.4999C0 15.4999 0 20.5762 0.69025 23.0097C0.876681 23.6694 1.24434 24.2715 1.75641 24.7556C2.26848 25.2398 2.90699 25.5891 3.608 25.7687C6.18062 26.4209 16.5 26.4209 16.5 26.4209C16.5 26.4209 26.8194 26.4209 29.3934 25.7687C30.0945 25.5893 30.733 25.24 31.2451 24.7558C31.7572 24.2715 32.1248 23.6694 32.3111 23.0097C33 20.5762 33 15.4999 33 15.4999C33 15.4999 33 10.4237 32.3098 7.99016ZM13.1244 20.1085V10.8913L21.7498 15.4999L13.1244 20.1085Z" fill="white"/>
</svg>
