<svg width="50" height="40" viewBox="0 0 50 40" fill="none" xmlns="http://www.w3.org/2000/svg">
<path d="M36.9431 10.2764C36.73 9.41426 36.3096 8.62738 35.724 7.99456C35.1386 7.36175 34.4085 6.9052 33.6069 6.67067C30.6654 5.81818 18.8662 5.81818 18.8662 5.81818C18.8662 5.81818 7.06695 5.81818 4.12383 6.67067C3.32266 6.90562 2.59299 7.36233 2.0078 7.99509C1.4226 8.62787 1.00241 9.41454 0.789234 10.2764C0 13.4568 0 20.0909 0 20.0909C0 20.0909 0 26.7251 0.789234 29.9054C1.0024 30.7676 1.42278 31.5545 2.00829 32.1873C2.59379 32.82 3.32387 33.2766 4.12541 33.5112C7.06695 34.3636 18.8662 34.3636 18.8662 34.3636C18.8662 34.3636 30.6654 34.3636 33.6086 33.5112C34.4101 33.2768 35.1403 32.8203 35.7258 32.1875C36.3114 31.5546 36.7316 30.7676 36.9447 29.9054C37.7323 26.7251 37.7323 20.0909 37.7323 20.0909C37.7323 20.0909 37.7323 13.4568 36.9431 10.2764ZM15.0065 26.114V14.0679L24.8688 20.0909L15.0065 26.114Z" fill="url(#paint0_linear_23_257)"/>
<defs>
<linearGradient id="paint0_linear_23_257" x1="18.8662" y1="5.81818" x2="18.8662" y2="34.3636" gradientUnits="userSpaceOnUse">
<stop stop-color="#F2B90C"/>
<stop offset="1" stop-color="#F2A50C"/>
</linearGradient>
</defs>
</svg>
